# Blender v2.93.4 OBJ File: 'planta.blend'
# www.blender.org
mtllib maceta.mtl
o maceta_Cylinder
v 0.000000 0.008629 -0.826403
v 0.000000 1.800531 -1.000000
v 0.195090 1.800531 -0.980785
v 0.161223 0.008629 -0.810524
v 0.382683 1.800531 -0.923880
v 0.316251 0.008629 -0.763497
v 0.555570 1.800531 -0.831470
v 0.459125 0.008629 -0.687129
v 0.707107 1.800531 -0.707107
v 0.584355 0.008629 -0.584355
v 0.831470 1.800531 -0.555570
v 0.687129 0.008629 -0.459125
v 0.923880 1.800531 -0.382683
v 0.763497 0.008629 -0.316251
v 0.980785 1.800531 -0.195090
v 0.810524 0.008629 -0.161223
v 1.000000 1.800531 0.000000
v 0.826403 0.008629 0.000000
v 0.980785 1.800531 0.195090
v 0.810524 0.008629 0.161223
v 0.923880 1.800531 0.382683
v 0.763497 0.008629 0.316251
v 0.831470 1.800531 0.555570
v 0.687129 0.008629 0.459125
v 0.707107 1.800531 0.707107
v 0.584355 0.008629 0.584355
v 0.555570 1.800531 0.831470
v 0.459125 0.008629 0.687129
v 0.382683 1.800531 0.923880
v 0.316251 0.008629 0.763497
v 0.195090 1.800531 0.980785
v 0.161223 0.008629 0.810524
v 0.000000 1.800531 1.000000
v 0.000000 0.008629 0.826403
v -0.195090 1.800531 0.980785
v -0.161223 0.008629 0.810524
v -0.382683 1.800531 0.923880
v -0.316251 0.008629 0.763497
v -0.555570 1.800531 0.831470
v -0.459125 0.008629 0.687129
v -0.707107 1.800531 0.707107
v -0.584355 0.008629 0.584355
v -0.831469 1.800531 0.555570
v -0.687129 0.008629 0.459125
v -0.923880 1.800531 0.382684
v -0.763497 0.008629 0.316251
v -0.980785 1.800531 0.195090
v -0.810524 0.008629 0.161223
v -1.000000 1.800531 0.000000
v -0.826403 0.008629 0.000000
v -0.980785 1.800531 -0.195090
v -0.810524 0.008629 -0.161223
v -0.923879 1.800531 -0.382684
v -0.763497 0.008629 -0.316251
v -0.831470 1.800531 -0.555570
v -0.687129 0.008629 -0.459125
v -0.707107 1.800531 -0.707107
v -0.584355 0.008629 -0.584355
v -0.555570 1.800531 -0.831470
v -0.459125 0.008629 -0.687129
v -0.382683 1.800531 -0.923880
v -0.316251 0.008629 -0.763497
v 0.195090 1.983472 -0.980785
v 0.382683 1.983472 -0.923880
v 0.447773 1.983472 -1.081020
v 0.228273 1.983472 -1.147605
v -0.195090 1.800531 -0.980785
v -0.161223 0.008629 -0.810524
v 0.980785 1.983472 -0.195090
v 0.923880 1.983472 -0.382683
v 0.923880 1.844331 -0.382683
v 0.980785 1.844331 -0.195090
v -0.831470 1.983472 -0.555570
v -0.707107 1.983472 -0.707107
v -0.827377 1.983472 -0.827377
v -0.972893 1.983472 -0.650066
v 0.447773 1.800531 1.081020
v 0.228273 1.800531 1.147605
v 0.000000 1.983472 -1.000000
v 0.000000 1.983472 -1.170088
v -0.923879 1.983472 -0.382684
v -1.081020 1.983472 -0.447773
v 0.972893 1.800531 -0.650066
v 1.081020 1.800531 -0.447773
v -0.228273 1.800531 -1.147605
v 0.000000 1.800531 -1.170088
v -0.980785 1.983472 -0.195090
v -1.147605 1.983472 -0.228273
v -1.081020 1.800531 0.447773
v -1.147605 1.800531 0.228273
v -1.000000 1.983472 0.000000
v -1.170088 1.983472 0.000000
v 0.650066 1.800531 0.972893
v -0.980785 1.983472 0.195090
v -1.147605 1.983472 0.228273
v 0.827377 1.800531 -0.827377
v -0.447773 1.800531 -1.081020
v -0.923880 1.983472 0.382684
v -1.081020 1.983472 0.447773
v -0.972892 1.800531 0.650066
v -0.831469 1.983472 0.555570
v -0.972892 1.983472 0.650066
v 0.827377 1.800531 0.827377
v -0.707107 1.983472 0.707107
v -0.827377 1.983472 0.827377
v 0.650066 1.800531 -0.972893
v -0.650066 1.800531 -0.972893
v -0.555570 1.983472 0.831470
v -0.650066 1.983472 0.972893
v -0.827377 1.800531 0.827377
v -0.382683 1.983472 0.923880
v -0.447773 1.983472 1.081020
v 0.972893 1.800531 0.650066
v -0.195090 1.983472 0.980785
v -0.228273 1.983472 1.147605
v 0.447773 1.800531 -1.081020
v -0.827377 1.800531 -0.827377
v 0.000000 1.983472 1.000000
v 0.000000 1.983472 1.170088
v -0.650066 1.800531 0.972893
v 0.195090 1.983472 0.980785
v 0.228273 1.983472 1.147605
v 1.081020 1.800531 0.447773
v 1.147605 1.800531 0.228273
v 1.147605 1.983472 0.228273
v 1.081020 1.983472 0.447773
v -0.447773 1.800531 1.081020
v -0.972893 1.800531 -0.650066
v 0.972893 1.983472 -0.650066
v 1.081020 1.983472 -0.447773
v 0.447773 1.983472 1.081020
v -1.170088 1.800531 0.000000
v 0.228273 1.800531 -1.147605
v 0.972893 1.983472 0.650066
v -0.650066 1.983472 -0.972893
v 1.147605 1.800531 -0.228273
v 1.147605 1.983472 -0.228273
v 0.000000 1.800531 1.170088
v -1.147605 1.800531 -0.228273
v 0.650066 1.983472 -0.972893
v 0.827377 1.983472 0.827377
v -0.447773 1.983472 -1.081020
v 1.170088 1.800531 0.000000
v 1.170088 1.983472 0.000000
v -0.228273 1.800531 1.147605
v -1.081020 1.800531 -0.447773
v 0.827377 1.983472 -0.827377
v 0.650066 1.983472 0.972893
v -0.228273 1.983472 -1.147605
v -0.555570 1.983472 -0.831470
v 0.555570 1.983472 -0.831470
v -0.382683 1.983472 -0.923880
v 0.707107 1.983472 -0.707107
v -0.195090 1.983472 -0.980785
v 0.831470 1.983472 -0.555570
v 1.000000 1.983472 0.000000
v 0.980785 1.983472 0.195090
v 0.923880 1.983472 0.382683
v 0.831470 1.983472 0.555570
v 0.707107 1.983472 0.707107
v 0.555570 1.983472 0.831470
v 0.382683 1.983472 0.923880
v -0.707107 1.844331 0.707107
v -0.831469 1.844331 0.555570
v 1.000000 1.844331 0.000000
v -0.923880 1.844331 0.382684
v 0.980785 1.844331 0.195090
v -0.980785 1.844331 0.195090
v 0.923880 1.844331 0.382683
v -1.000000 1.844331 0.000000
v 0.831470 1.844331 0.555570
v -0.980785 1.844331 -0.195090
v 0.707107 1.844331 0.707107
v -0.923879 1.844331 -0.382684
v 0.555570 1.844331 0.831470
v -0.831470 1.844331 -0.555570
v 0.382683 1.844331 0.923880
v 0.000000 1.844331 -1.000000
v 0.195090 1.844331 -0.980785
v -0.707107 1.844331 -0.707107
v 0.195090 1.844331 0.980785
v 0.382683 1.844331 -0.923880
v -0.555570 1.844331 -0.831470
v 0.000000 1.844331 1.000000
v 0.555570 1.844331 -0.831470
v -0.382683 1.844331 -0.923880
v -0.195090 1.844331 0.980785
v 0.707107 1.844331 -0.707107
v -0.195090 1.844331 -0.980785
v -0.382683 1.844331 0.923880
v 0.831470 1.844331 -0.555570
v -0.555570 1.844331 0.831470
v 0.214496 1.974609 0.327984
v 0.157584 2.002531 -0.308714
v -0.109168 1.891157 0.740926
v 0.651506 1.923555 0.550810
v 0.315169 1.855527 1.040071
v 0.779669 1.891313 0.796525
v -0.427109 1.967029 0.039983
v -0.988575 1.887323 0.370125
v 1.031193 1.908471 0.148936
v 0.529412 2.008257 0.077944
v -0.476762 2.014620 -0.242194
v 0.282828 1.831490 1.093256
v -0.366910 1.871705 1.074885
v -0.513170 1.841253 -0.948059
v 0.268428 1.851080 -1.108200
v 1.000912 1.896486 -0.526182
v -1.014711 1.892200 -0.332080
vt 0.387974 0.679818
vt 0.390463 0.600363
vt 0.398474 0.600500
vt 0.394594 0.679931
vt 0.405684 0.600684
vt 0.400552 0.680083
vt 0.405879 0.353410
vt 0.411815 0.432790
vt 0.405683 0.432994
vt 0.400812 0.353579
vt 0.398473 0.433155
vt 0.394854 0.353711
vt 0.390462 0.433265
vt 0.388233 0.353802
vt 0.381958 0.433321
vt 0.381205 0.353849
vt 0.373286 0.433321
vt 0.374039 0.353849
vt 0.364782 0.433265
vt 0.367011 0.353802
vt 0.356770 0.433155
vt 0.360390 0.353711
vt 0.349560 0.432994
vt 0.354432 0.353579
vt 0.343429 0.432790
vt 0.349365 0.353410
vt 0.674560 0.083465
vt 0.679431 0.162880
vt 0.672222 0.163041
vt 0.668602 0.083597
vt 0.664210 0.163151
vt 0.661981 0.083688
vt 0.655706 0.163208
vt 0.654953 0.083735
vt 0.647034 0.163208
vt 0.647787 0.083735
vt 0.638530 0.163151
vt 0.640759 0.083688
vt 0.630519 0.163041
vt 0.634138 0.083597
vt 0.623309 0.162880
vt 0.628180 0.083465
vt 0.584419 0.672929
vt 0.578744 0.593530
vt 0.584876 0.593346
vt 0.589487 0.672777
vt 0.592087 0.593209
vt 0.595446 0.672664
vt 0.600098 0.593125
vt 0.602067 0.672595
vt 0.608603 0.593096
vt 0.609095 0.672571
vt 0.617274 0.593125
vt 0.616261 0.672595
vt 0.625778 0.593209
vt 0.623289 0.672664
vt 0.633789 0.593346
vt 0.629909 0.672777
vt 0.640999 0.593530
vt 0.635867 0.672929
vt 0.349104 0.680083
vt 0.343429 0.600684
vt 0.349561 0.600500
vt 0.354172 0.679931
vt 0.356771 0.600363
vt 0.360131 0.679818
vt 0.364783 0.600279
vt 0.366751 0.679749
vt 0.373288 0.600250
vt 0.373780 0.679725
vt 0.362585 0.147813
vt 0.365901 0.155824
vt 0.359269 0.159371
vt 0.355388 0.149997
vt 0.381959 0.600279
vt 0.380946 0.679749
vt 0.632354 0.422027
vt 0.625734 0.424769
vt 0.618706 0.426167
vt 0.611540 0.426167
vt 0.604511 0.424769
vt 0.597891 0.422027
vt 0.591933 0.418046
vt 0.586865 0.412978
vt 0.582884 0.407020
vt 0.580142 0.400399
vt 0.578744 0.393371
vt 0.578744 0.386205
vt 0.580142 0.379177
vt 0.582884 0.372556
vt 0.586865 0.366598
vt 0.591933 0.361531
vt 0.597891 0.357550
vt 0.604511 0.354808
vt 0.611540 0.353410
vt 0.618706 0.353410
vt 0.625734 0.354808
vt 0.632354 0.357550
vt 0.638313 0.361531
vt 0.643380 0.366598
vt 0.647361 0.372556
vt 0.650103 0.379177
vt 0.651501 0.386205
vt 0.651501 0.393371
vt 0.650103 0.400399
vt 0.647361 0.407020
vt 0.643380 0.412978
vt 0.638313 0.418046
vt 0.083792 0.892809
vt 0.083792 0.884138
vt 0.089943 0.884138
vt 0.089943 0.892809
vt 0.376846 0.100780
vt 0.370717 0.106911
vt 0.364904 0.102138
vt 0.372075 0.094964
vt 0.169166 0.106911
vt 0.163034 0.100780
vt 0.167807 0.094964
vt 0.174981 0.102138
vt 0.360894 0.139308
vt 0.353410 0.140046
vt 0.384053 0.095962
vt 0.380507 0.089327
vt 0.100780 0.106911
vt 0.095962 0.114121
vt 0.089327 0.110574
vt 0.094964 0.102138
vt 0.095962 0.155824
vt 0.100780 0.163034
vt 0.094964 0.167807
vt 0.089327 0.159371
vt 0.392060 0.092644
vt 0.389877 0.085444
vt 0.163034 0.169166
vt 0.169166 0.163034
vt 0.174981 0.167807
vt 0.167807 0.174981
vt 0.400561 0.090952
vt 0.399824 0.083465
vt 0.155824 0.095962
vt 0.159371 0.089327
vt 0.409229 0.090952
vt 0.409966 0.083465
vt 0.092644 0.122132
vt 0.085444 0.119948
vt 0.106911 0.169165
vt 0.102138 0.174981
vt 0.417729 0.092644
vt 0.419912 0.085444
vt 0.173983 0.155824
vt 0.180618 0.159371
vt 0.425737 0.095962
vt 0.429282 0.089327
vt 0.147813 0.092644
vt 0.149997 0.085444
vt 0.432944 0.100780
vt 0.437715 0.094964
vt 0.090952 0.130637
vt 0.083465 0.129900
vt 0.114121 0.173983
vt 0.110574 0.180618
vt 0.439072 0.106911
vt 0.444886 0.102138
vt 0.177301 0.147813
vt 0.184501 0.149997
vt 0.443888 0.114121
vt 0.450520 0.110574
vt 0.139308 0.090952
vt 0.140046 0.083465
vt 0.447205 0.122132
vt 0.454401 0.119948
vt 0.090952 0.139308
vt 0.083465 0.140046
vt 0.122132 0.177301
vt 0.119948 0.184501
vt 0.448895 0.130637
vt 0.456380 0.129900
vt 0.178993 0.139308
vt 0.186480 0.140046
vt 0.448895 0.139308
vt 0.456380 0.140046
vt 0.130637 0.090952
vt 0.129900 0.083465
vt 0.091935 0.620640
vt 0.091748 0.629076
vt 0.083660 0.629076
vt 0.083848 0.620640
vt 0.827025 0.353297
vt 0.826810 0.360472
vt 0.818722 0.360499
vt 0.818938 0.353323
vt 0.816148 0.650354
vt 0.816308 0.658791
vt 0.808220 0.658765
vt 0.808060 0.650328
vt 0.091552 0.658547
vt 0.091618 0.668499
vt 0.083530 0.668499
vt 0.083465 0.658547
vt 0.826518 0.388235
vt 0.826551 0.398381
vt 0.818464 0.398407
vt 0.818431 0.388261
vt 0.816082 0.850706
vt 0.816016 0.860657
vt 0.807928 0.860657
vt 0.807994 0.850706
vt 0.816523 0.593123
vt 0.816308 0.601558
vt 0.808220 0.601532
vt 0.808435 0.593096
vt 0.092174 0.613466
vt 0.084086 0.613466
vt 0.816211 0.890128
vt 0.816399 0.898564
vt 0.808311 0.898564
vt 0.808123 0.890128
vt 0.816049 0.640980
vt 0.807961 0.640954
vt 0.091552 0.648401
vt 0.083465 0.648401
vt 0.826551 0.378283
vt 0.818464 0.378310
vt 0.816211 0.841332
vt 0.808123 0.841332
vt 0.091935 0.686309
vt 0.092174 0.693483
vt 0.084086 0.693483
vt 0.083848 0.686309
vt 0.826810 0.417705
vt 0.827025 0.426141
vt 0.818938 0.426167
vt 0.818722 0.417732
vt 0.816082 0.880754
vt 0.807994 0.880754
vt 0.816016 0.631029
vt 0.807928 0.631002
vt 0.091618 0.638450
vt 0.083530 0.638450
vt 0.826650 0.368909
vt 0.818563 0.368936
vt 0.816399 0.832896
vt 0.808311 0.832896
vt 0.091748 0.677872
vt 0.083660 0.677872
vt 0.826650 0.408332
vt 0.818563 0.408358
vt 0.816016 0.870803
vt 0.807928 0.870803
vt 0.816049 0.620883
vt 0.807961 0.620856
vt 0.816523 0.665966
vt 0.808435 0.665940
vt 0.816148 0.610932
vt 0.808060 0.610905
vt 0.155824 0.173983
vt 0.159371 0.180618
vt 0.365902 0.114121
vt 0.359269 0.110574
vt 0.370717 0.163034
vt 0.364904 0.167807
vt 0.106911 0.100780
vt 0.102138 0.094964
vt 0.362585 0.122132
vt 0.355388 0.119948
vt 0.376846 0.169166
vt 0.372075 0.174981
vt 0.173983 0.114121
vt 0.180618 0.110574
vt 0.360894 0.130637
vt 0.353410 0.129900
vt 0.384052 0.173983
vt 0.380507 0.180618
vt 0.147813 0.177301
vt 0.149997 0.184501
vt 0.392060 0.177301
vt 0.389877 0.184501
vt 0.114121 0.095962
vt 0.110574 0.089327
vt 0.400561 0.178993
vt 0.399824 0.186480
vt 0.177301 0.122132
vt 0.184501 0.119948
vt 0.409228 0.178993
vt 0.409966 0.186480
vt 0.139308 0.178993
vt 0.140046 0.186480
vt 0.417729 0.177301
vt 0.419912 0.184501
vt 0.122132 0.092644
vt 0.119948 0.085444
vt 0.425737 0.173983
vt 0.429282 0.180618
vt 0.178993 0.130637
vt 0.186480 0.129900
vt 0.092644 0.147813
vt 0.085444 0.149997
vt 0.432944 0.169165
vt 0.437714 0.174981
vt 0.130637 0.178993
vt 0.129900 0.186480
vt 0.439072 0.163034
vt 0.444885 0.167807
vt 0.443888 0.155824
vt 0.450520 0.159371
vt 0.447205 0.147813
vt 0.454401 0.149997
vt 0.846836 0.104817
vt 0.846725 0.096806
vt 0.852877 0.096806
vt 0.852987 0.104817
vt 0.083735 0.901314
vt 0.089887 0.901314
vt 0.846892 0.113322
vt 0.853044 0.113322
vt 0.083625 0.909325
vt 0.089776 0.909325
vt 0.846892 0.121993
vt 0.853044 0.121993
vt 0.083465 0.916535
vt 0.089616 0.916535
vt 0.846836 0.130498
vt 0.852987 0.130498
vt 0.349829 0.903156
vt 0.350013 0.909288
vt 0.343862 0.909267
vt 0.343678 0.903135
vt 0.846725 0.138509
vt 0.852877 0.138509
vt 0.349693 0.895945
vt 0.343541 0.895925
vt 0.846565 0.145719
vt 0.852716 0.145719
vt 0.349608 0.887933
vt 0.343457 0.887913
vt 0.846361 0.151850
vt 0.852512 0.151850
vt 0.349580 0.879429
vt 0.343429 0.879409
vt 0.585008 0.853201
vt 0.584924 0.861212
vt 0.578772 0.861233
vt 0.578857 0.853221
vt 0.585145 0.894904
vt 0.585329 0.902113
vt 0.579177 0.902133
vt 0.578993 0.894924
vt 0.349608 0.870758
vt 0.343457 0.870737
vt 0.585145 0.845990
vt 0.578993 0.846011
vt 0.585008 0.886893
vt 0.578857 0.886913
vt 0.349693 0.862253
vt 0.343541 0.862233
vt 0.585329 0.839858
vt 0.579177 0.839879
vt 0.584924 0.878388
vt 0.578772 0.878409
vt 0.349829 0.854242
vt 0.343678 0.854222
vt 0.083625 0.867622
vt 0.083465 0.860412
vt 0.089616 0.860412
vt 0.089776 0.867622
vt 0.584895 0.869717
vt 0.578744 0.869737
vt 0.350013 0.847033
vt 0.343862 0.847013
vt 0.083735 0.875633
vt 0.089887 0.875633
vt 0.846565 0.089596
vt 0.846361 0.083465
vt 0.852512 0.083465
vt 0.852716 0.089596
vt 0.116008 0.404594
vt 0.135791 0.384357
vt 0.115467 0.427870
vt 0.094758 0.400042
vt 0.092531 0.426272
vt 0.083465 0.404900
vt 0.146034 0.412694
vt 0.155960 0.439785
vt 0.092977 0.375669
vt 0.112245 0.387187
vt 0.155672 0.404376
vt 0.092129 0.429021
vt 0.114938 0.446537
vt 0.176500 0.381385
vt 0.154213 0.354020
vt 0.112885 0.353410
vt 0.176500 0.416466
vn 0.0976 -0.0960 -0.9906
vn 0.2889 -0.0960 -0.9525
vn 0.4692 -0.0960 -0.8779
vn 0.6315 -0.0960 -0.7694
vn 0.7694 -0.0960 -0.6315
vn 0.8779 -0.0960 -0.4692
vn 0.9525 -0.0960 -0.2889
vn 0.9906 -0.0960 -0.0976
vn 0.9906 -0.0960 0.0976
vn 0.9525 -0.0960 0.2889
vn 0.8779 -0.0960 0.4692
vn 0.7694 -0.0960 0.6315
vn 0.6315 -0.0960 0.7694
vn 0.4692 -0.0960 0.8779
vn 0.2889 -0.0960 0.9525
vn 0.0976 -0.0960 0.9906
vn -0.0976 -0.0960 0.9906
vn -0.2889 -0.0960 0.9525
vn -0.4692 -0.0960 0.8779
vn -0.6315 -0.0960 0.7694
vn -0.7694 -0.0960 0.6315
vn -0.8778 -0.0960 0.4692
vn -0.9525 -0.0960 0.2889
vn -0.9906 -0.0960 0.0976
vn -0.9906 -0.0960 -0.0976
vn -0.9525 -0.0960 -0.2889
vn -0.8779 -0.0960 -0.4692
vn -0.7694 -0.0960 -0.6315
vn -0.6315 -0.0960 -0.7694
vn -0.4692 -0.0960 -0.8779
vn 0.0000 1.0000 0.0000
vn -0.2889 -0.0960 -0.9525
vn -0.0976 -0.0960 -0.9906
vn -0.0000 -1.0000 -0.0000
vn -0.9569 0.0000 0.2903
vn 0.9569 0.0000 0.2903
vn -0.4714 -0.0000 0.8819
vn -0.7730 0.0000 -0.6344
vn 0.8819 0.0000 -0.4714
vn 0.2903 -0.0000 0.9569
vn -0.9952 0.0000 0.0980
vn 0.2903 0.0000 -0.9569
vn 0.8819 0.0000 0.4714
vn -0.6344 0.0000 0.7730
vn -0.6344 0.0000 -0.7730
vn 0.9569 0.0000 -0.2903
vn 0.0980 -0.0000 0.9952
vn -0.9952 0.0000 -0.0980
vn 0.4714 0.0000 -0.8819
vn 0.7730 0.0000 0.6344
vn -0.7730 0.0000 0.6344
vn -0.4714 0.0000 -0.8819
vn 0.9952 0.0000 -0.0980
vn -0.0980 -0.0000 0.9952
vn -0.9569 0.0000 -0.2903
vn 0.6344 0.0000 -0.7730
vn 0.6344 0.0000 0.7730
vn -0.8819 0.0000 0.4714
vn -0.2903 0.0000 -0.9569
vn 0.9952 0.0000 0.0980
vn -0.2903 -0.0000 0.9569
vn -0.8819 0.0000 -0.4714
vn 0.7730 0.0000 -0.6344
vn 0.4714 -0.0000 0.8819
vn 0.0980 0.0000 -0.9952
vn -0.0980 0.0000 -0.9952
vn -0.1780 0.9823 0.0590
vn -0.0064 0.9910 0.1334
vn -0.0611 0.9890 0.1348
vn 0.1758 0.9759 0.1294
vn 0.0418 0.9853 0.1657
vn -0.0371 0.9848 0.1699
vn 0.0230 0.9866 0.1617
vn 0.1140 0.9910 0.0705
vn 0.0356 0.9865 0.1601
vn 0.1978 0.8425 0.5011
vn 0.0435 0.9002 0.4333
vn 0.0030 0.9943 0.1063
vn -0.0518 0.9799 -0.1928
vn 0.0967 0.9895 -0.1076
vn 0.0783 0.9814 -0.1751
vn -0.0065 0.9712 -0.2382
vn -0.0670 0.9965 0.0497
vn -0.1801 0.9574 -0.2258
vn 0.1986 0.9797 -0.0263
vn -0.2243 0.9744 0.0151
vn -0.0382 0.9842 0.1727
vn 0.0277 0.9965 0.0794
vn -0.0218 0.9989 0.0414
usemtl Material
s 1
f 1/1/1 2/2/1 3/3/1 4/4/1
f 4/4/2 3/3/2 5/5/2 6/6/2
f 6/7/3 5/8/3 7/9/3 8/10/3
f 8/10/4 7/9/4 9/11/4 10/12/4
f 10/12/5 9/11/5 11/13/5 12/14/5
f 12/14/6 11/13/6 13/15/6 14/16/6
f 14/16/7 13/15/7 15/17/7 16/18/7
f 16/18/8 15/17/8 17/19/8 18/20/8
f 18/20/9 17/19/9 19/21/9 20/22/9
f 20/22/10 19/21/10 21/23/10 22/24/10
f 22/24/11 21/23/11 23/25/11 24/26/11
f 24/27/12 23/28/12 25/29/12 26/30/12
f 26/30/13 25/29/13 27/31/13 28/32/13
f 28/32/14 27/31/14 29/33/14 30/34/14
f 30/34/15 29/33/15 31/35/15 32/36/15
f 32/36/16 31/35/16 33/37/16 34/38/16
f 34/38/17 33/37/17 35/39/17 36/40/17
f 36/40/18 35/39/18 37/41/18 38/42/18
f 38/43/19 37/44/19 39/45/19 40/46/19
f 40/46/20 39/45/20 41/47/20 42/48/20
f 42/48/21 41/47/21 43/49/21 44/50/21
f 44/50/22 43/49/22 45/51/22 46/52/22
f 46/52/23 45/51/23 47/53/23 48/54/23
f 48/54/24 47/53/24 49/55/24 50/56/24
f 50/56/25 49/55/25 51/57/25 52/58/25
f 52/58/26 51/57/26 53/59/26 54/60/26
f 54/61/27 53/62/27 55/63/27 56/64/27
f 56/64/28 55/63/28 57/65/28 58/66/28
f 58/66/29 57/65/29 59/67/29 60/68/29
f 60/68/30 59/67/30 61/69/30 62/70/30
f 63/71/31 64/72/31 65/73/31 66/74/31
f 62/70/32 61/69/32 67/75/32 68/76/32
f 68/76/33 67/75/33 2/2/33 1/1/33
f 1/77/34 4/78/34 6/79/34 8/80/34 10/81/34 12/82/34 14/83/34 16/84/34 18/85/34 20/86/34 22/87/34 24/88/34 26/89/34 28/90/34 30/91/34 32/92/34 34/93/34 36/94/34 38/95/34 40/96/34 42/97/34 44/98/34 46/99/34 48/100/34 50/101/34 52/102/34 54/103/34 56/104/34 58/105/34 60/106/34 62/107/34 68/108/34
f 69/109/35 70/110/35 71/111/35 72/112/35
f 73/113/31 74/114/31 75/115/31 76/116/31
f 31/117/34 29/118/34 77/119/34 78/120/34
f 79/121/31 63/71/31 66/74/31 80/122/31
f 81/123/31 73/113/31 76/116/31 82/124/31
f 13/125/34 11/126/34 83/127/34 84/128/34
f 2/129/34 67/130/34 85/131/34 86/132/34
f 87/133/31 81/123/31 82/124/31 88/134/31
f 47/135/34 45/136/34 89/137/34 90/138/34
f 91/139/31 87/133/31 88/134/31 92/140/31
f 29/118/34 27/141/34 93/142/34 77/119/34
f 94/143/31 91/139/31 92/140/31 95/144/31
f 11/126/34 9/145/34 96/146/34 83/127/34
f 67/130/34 61/147/34 97/148/34 85/131/34
f 98/149/31 94/143/31 95/144/31 99/150/31
f 45/136/34 43/151/34 100/152/34 89/137/34
f 101/153/31 98/149/31 99/150/31 102/154/31
f 27/141/34 25/155/34 103/156/34 93/142/34
f 104/157/31 101/153/31 102/154/31 105/158/31
f 9/145/34 7/159/34 106/160/34 96/146/34
f 61/147/34 59/161/34 107/162/34 97/148/34
f 108/163/31 104/157/31 105/158/31 109/164/31
f 43/151/34 41/165/34 110/166/34 100/152/34
f 111/167/31 108/163/31 109/164/31 112/168/31
f 25/155/34 23/169/34 113/170/34 103/156/34
f 114/171/31 111/167/31 112/168/31 115/172/31
f 7/159/34 5/173/34 116/174/34 106/160/34
f 59/161/34 57/175/34 117/176/34 107/162/34
f 118/177/31 114/171/31 115/172/31 119/178/31
f 41/165/34 39/179/34 120/180/34 110/166/34
f 121/181/31 118/177/31 119/178/31 122/182/31
f 23/169/34 21/183/34 123/184/34 113/170/34
f 123/185/36 124/186/36 125/187/36 126/188/36
f 120/189/37 127/190/37 112/191/37 109/192/37
f 117/193/38 128/194/38 76/195/38 75/196/38
f 84/197/39 83/198/39 129/199/39 130/200/39
f 78/201/40 77/202/40 131/203/40 122/204/40
f 132/205/41 90/206/41 95/207/41 92/208/41
f 116/209/42 133/210/42 66/211/42 65/212/42
f 113/213/43 123/185/43 126/188/43 134/214/43
f 110/215/44 120/216/44 109/217/44 105/218/44
f 107/219/45 117/193/45 75/196/45 135/220/45
f 136/221/46 84/197/46 130/200/46 137/222/46
f 138/223/47 78/201/47 122/204/47 119/224/47
f 139/225/48 132/205/48 92/208/48 88/226/48
f 106/227/49 116/228/49 65/229/49 140/230/49
f 103/231/50 113/232/50 134/233/50 141/234/50
f 100/235/51 110/215/51 105/218/51 102/236/51
f 97/237/52 107/219/52 135/220/52 142/238/52
f 143/239/53 136/221/53 137/222/53 144/240/53
f 145/241/54 138/223/54 119/224/54 115/242/54
f 146/243/55 139/225/55 88/226/55 82/244/55
f 96/245/56 106/227/56 140/230/56 147/246/56
f 93/247/57 103/231/57 141/234/57 148/248/57
f 89/249/58 100/235/58 102/236/58 99/250/58
f 85/251/59 97/237/59 142/238/59 149/252/59
f 124/186/60 143/239/60 144/240/60 125/187/60
f 127/190/61 145/241/61 115/242/61 112/191/61
f 128/194/62 146/253/62 82/254/62 76/195/62
f 83/198/63 96/245/63 147/246/63 129/199/63
f 77/202/64 93/247/64 148/248/64 131/203/64
f 90/206/35 89/249/35 99/250/35 95/207/35
f 133/210/65 86/255/65 80/256/65 66/211/65
f 86/255/66 85/251/66 149/252/66 80/256/66
f 49/257/34 47/135/34 90/138/34 132/258/34
f 74/114/31 150/259/31 135/260/31 75/115/31
f 64/72/31 151/261/31 140/262/31 65/73/31
f 15/263/34 13/125/34 84/128/34 136/264/34
f 150/259/31 152/265/31 142/266/31 135/260/31
f 151/261/31 153/267/31 147/268/31 140/262/31
f 33/269/34 31/117/34 78/120/34 138/270/34
f 152/265/31 154/271/31 149/272/31 142/266/31
f 153/267/31 155/273/31 129/274/31 147/268/31
f 51/275/34 49/257/34 132/258/34 139/276/34
f 154/271/31 79/121/31 80/122/31 149/272/31
f 155/273/31 70/277/31 130/278/31 129/274/31
f 17/279/34 15/263/34 136/264/34 143/280/34
f 70/277/31 69/281/31 137/282/31 130/278/31
f 35/283/34 33/269/34 138/270/34 145/284/34
f 69/281/31 156/285/31 144/286/31 137/282/31
f 53/287/34 51/275/34 139/276/34 146/288/34
f 156/285/31 157/289/31 125/290/31 144/286/31
f 19/291/34 17/279/34 143/280/34 124/292/34
f 157/289/31 158/293/31 126/294/31 125/290/31
f 37/295/34 35/283/34 145/284/34 127/296/34
f 3/297/34 2/129/34 86/132/34 133/298/34
f 158/293/31 159/299/31 134/300/31 126/294/31
f 55/301/34 53/287/34 146/288/34 128/302/34
f 159/299/31 160/303/31 141/304/31 134/300/31
f 21/183/34 19/291/34 124/292/34 123/184/34
f 160/303/31 161/305/31 148/306/31 141/304/31
f 39/179/34 37/295/34 127/296/34 120/180/34
f 161/305/31 162/307/31 131/308/31 148/306/31
f 57/175/34 55/301/34 128/302/34 117/176/34
f 5/173/34 3/297/34 133/298/34 116/174/34
f 162/307/31 121/181/31 122/182/31 131/308/31
f 101/309/63 104/310/63 163/311/63 164/312/63
f 156/313/41 69/109/41 72/112/41 165/314/41
f 98/315/39 101/309/39 164/312/39 166/316/39
f 157/317/48 156/313/48 165/314/48 167/318/48
f 94/319/46 98/315/46 166/316/46 168/320/46
f 158/321/55 157/317/55 167/318/55 169/322/55
f 91/323/53 94/319/53 168/320/53 170/324/53
f 159/325/62 158/326/62 169/327/62 171/328/62
f 87/329/60 91/323/60 170/324/60 172/330/60
f 160/331/38 159/325/38 171/328/38 173/332/38
f 81/333/36 87/329/36 172/330/36 174/334/36
f 161/335/45 160/331/45 173/332/45 175/336/45
f 73/337/43 81/333/43 174/334/43 176/338/43
f 162/339/52 161/335/52 175/336/52 177/340/52
f 63/341/54 79/342/54 178/343/54 179/344/54
f 74/345/50 73/346/50 176/347/50 180/348/50
f 121/349/59 162/339/59 177/340/59 181/350/59
f 64/351/61 63/341/61 179/344/61 182/352/61
f 150/353/57 74/345/57 180/348/57 183/354/57
f 118/355/66 121/349/66 181/350/66 184/356/66
f 151/357/37 64/351/37 182/352/37 185/358/37
f 152/359/64 150/353/64 183/354/64 186/360/64
f 114/361/65 118/355/65 184/356/65 187/362/65
f 153/363/44 151/364/44 185/365/44 188/366/44
f 154/367/40 152/359/40 186/360/40 189/368/40
f 111/369/42 114/361/42 187/362/42 190/370/42
f 155/371/51 153/363/51 188/366/51 191/372/51
f 79/342/47 154/367/47 189/368/47 178/343/47
f 108/373/49 111/374/49 190/375/49 192/376/49
f 70/110/58 155/371/58 191/372/58 71/111/58
f 104/310/56 108/373/56 192/376/56 163/311/56
f 193/377/67 194/378/67 195/379/67
f 196/380/68 197/381/68 198/382/68
f 199/383/69 200/384/69 195/379/69
f 196/380/70 201/385/70 202/386/70
f 197/381/71 196/380/71 202/386/71
f 197/381/72 193/377/72 195/379/72
f 193/377/73 197/381/73 202/386/73
f 201/385/74 196/380/74 198/382/74
f 199/383/75 194/378/75 203/387/75
f 204/388/76 198/382/76 197/381/76
f 205/389/77 204/388/77 197/381/77
f 194/378/78 199/383/78 195/379/78
f 206/390/79 194/378/79 207/391/79
f 194/378/80 202/386/80 208/392/80
f 208/392/81 207/391/81 194/378/81
f 194/378/82 206/390/82 203/387/82
f 194/378/83 193/377/83 202/386/83
f 206/390/84 209/393/84 203/387/84
f 208/392/85 202/386/85 201/385/85
f 200/384/86 203/387/86 209/393/86
f 200/384/87 199/383/87 203/387/87
f 197/381/88 195/379/88 205/389/88
f 200/384/89 205/389/89 195/379/89
