# This file uses meters as units for non-parametric coordinates.

mtllib rock2.mtl
g default
v 71.666878 6.546690 19.008022
v 66.616358 -0.120246 21.160774
v 65.432581 24.218395 -1.128427
v 66.222564 27.039812 18.073025
v 52.017496 27.042949 18.303228
v 53.125788 18.528128 -4.231058
v 42.729662 4.202930 4.041561
v 59.501130 32.791610 2.529551
v 52.990221 32.351197 7.922959
v 72.590995 24.325871 7.601430
v 74.020260 1.951088 4.190810
v 53.982339 3.822455 23.910226
v 48.932070 -0.163244 18.636833
v 50.740376 2.154271 -3.860945
v 61.022267 -0.126847 -4.456003
v 61.392714 33.279492 11.081777
vt 0.489384 0.063140
vt 0.692627 0.388633
vt 0.544698 0.464281
vt 0.697381 0.000918
vt 0.371491 0.267288
vt 0.772532 0.057718
vt 0.467836 0.470557
vt 0.376765 0.033944
vt 0.031677 0.096022
vt 0.194232 0.349393
vt 0.045001 0.388069
vt 0.242837 0.030530
vt 0.144634 0.476991
vt 0.318641 0.347861
vt 0.000998 0.001012
vt 0.266511 0.470038
vt 0.366063 0.000918
vt 0.923851 0.830084
vt 0.603235 0.804314
vt 0.594755 0.657787
vt 0.715854 0.918475
vt 0.959820 0.578066
vt 0.999002 0.758113
vt 0.717981 0.472553
vt 0.117879 0.626916
vt 0.237623 0.581900
vt 0.210666 0.703777
vt 0.104017 0.478987
vt 0.306453 0.482267
vt 0.338593 0.535174
vt 0.513029 0.866045
vt 0.310592 0.866089
vt 0.518641 0.478987
vt 0.590616 0.573997
vt 0.810864 0.204186
vt 0.986248 0.123094
vt 0.923397 0.470038
vt 0.901719 0.000918
vt 0.776870 0.437530
vn -0.091629 -0.750236 0.654790
vn -0.091629 -0.750236 0.654790
vn -0.091629 -0.750236 0.654790
vn -0.939969 0.331412 0.081394
vn -0.939969 0.331412 0.081394
vn -0.939969 0.331412 0.081394
vn -0.221568 -0.968037 -0.117527
vn -0.221568 -0.968037 -0.117527
vn -0.221568 -0.968037 -0.117527
vn 0.183513 -0.982210 -0.039822
vn 0.183513 -0.982210 -0.039822
vn 0.183513 -0.982210 -0.039822
vn 0.854924 0.247914 0.455680
vn 0.854924 0.247914 0.455680
vn 0.854924 0.247914 0.455680
vn -0.688817 0.084074 -0.720044
vn -0.688817 0.084074 -0.720044
vn -0.688817 0.084074 -0.720044
vn 0.015798 0.235955 0.971636
vn 0.015798 0.235955 0.971636
vn 0.015798 0.235955 0.971636
vn -0.096591 0.994695 -0.035381
vn -0.096591 0.994695 -0.035381
vn -0.096591 0.994695 -0.035381
vn -0.254546 0.870473 0.421288
vn -0.254546 0.870473 0.421288
vn -0.254546 0.870473 0.421288
vn 0.598643 0.626916 -0.498601
vn 0.598643 0.626916 -0.498601
vn 0.598643 0.626916 -0.498601
vn -0.753390 0.093423 0.650904
vn -0.753390 0.093423 0.650904
vn -0.753390 0.093423 0.650904
vn -0.832346 0.361356 -0.420263
vn -0.832346 0.361356 -0.420263
vn -0.832346 0.361356 -0.420263
vn 0.200983 0.096829 -0.974798
vn 0.200983 0.096829 -0.974798
vn 0.200983 0.096829 -0.974798
vn 0.037776 0.414162 -0.909419
vn 0.037776 0.414162 -0.909419
vn 0.037776 0.414162 -0.909419
vn 0.259882 0.112797 0.959030
vn 0.259882 0.112797 0.959030
vn 0.259882 0.112797 0.959030
vn 0.010888 0.749751 0.661630
vn 0.010888 0.749751 0.661630
vn 0.010888 0.749751 0.661630
vn -0.903027 0.107511 0.415913
vn -0.903027 0.107511 0.415913
vn -0.903027 0.107511 0.415913
vn -0.359037 -0.925030 -0.124146
vn -0.359037 -0.925030 -0.124146
vn -0.359037 -0.925030 -0.124146
vn 0.002472 -0.999997 -0.000282
vn 0.002472 -0.999997 -0.000282
vn 0.002472 -0.999997 -0.000282
vn 0.988683 0.041165 0.144263
vn 0.988683 0.041165 0.144263
vn 0.988683 0.041165 0.144263
vn -0.060802 -0.013702 -0.998056
vn -0.060802 -0.013702 -0.998056
vn -0.060802 -0.013702 -0.998056
vn 0.552286 0.013880 -0.833539
vn 0.552286 0.013880 -0.833539
vn 0.552286 0.013880 -0.833539
vn 0.764268 0.144619 -0.628474
vn 0.764268 0.144619 -0.628474
vn 0.764268 0.144619 -0.628474
vn 0.244833 0.113025 0.962955
vn 0.244833 0.113025 0.962955
vn 0.244833 0.113025 0.962955
vn 0.649298 0.732364 0.205071
vn 0.649298 0.732364 0.205071
vn 0.649298 0.732364 0.205071
vn -0.556155 0.545689 -0.626829
vn -0.556155 0.545689 -0.626829
vn -0.556155 0.545689 -0.626829
vn 0.805759 -0.517273 0.288411
vn 0.805759 -0.517273 0.288411
vn 0.805759 -0.517273 0.288411
vn 0.581420 0.794793 -0.173940
vn 0.581420 0.794793 -0.173940
vn 0.581420 0.794793 -0.173940
s off
g Rock4 NaturePack
usemtl Rock2SG
f 2/22/1 12/23/2 13/18/3
f 7/1/4 5/2/5 9/3/6
f 13/18/7 14/19/8 15/20/9
f 2/22/10 15/20/11 11/24/12
f 1/9/13 10/10/14 4/11/15
f 7/1/16 6/5/17 14/8/18
f 12/30/19 4/31/20 5/32/21
f 9/25/22 16/26/23 8/27/24
f 9/25/25 5/28/26 16/26/27
f 10/10/28 3/14/29 8/16/30
f 12/6/31 5/2/32 13/4/33
f 9/3/34 6/5/35 7/1/36
f 6/35/37 3/36/38 15/37/39
f 8/38/40 3/36/41 6/35/42
f 1/34/43 4/31/44 2/33/45
f 5/28/46 4/29/47 16/26/48
f 13/4/49 5/2/50 7/1/51
f 13/18/52 7/21/53 14/19/54
f 2/22/55 13/18/56 15/20/57
f 11/12/58 10/10/59 1/9/60
f 15/37/61 14/39/62 6/35/63
f 15/17/64 3/14/65 11/12/66
f 10/10/67 11/12/68 3/14/69
f 2/33/70 4/31/71 12/30/72
f 10/10/73 16/13/74 4/11/75
f 8/7/76 6/5/77 9/3/78
f 2/15/79 11/12/80 1/9/81
f 10/10/82 8/16/83 16/13/84
