# This file uses meters as units for non-parametric coordinates.

mtllib bush1.mtl
g default
v -21.535659 0.187148 13.012968
v -13.338228 0.836107 18.638287
v -24.945408 1.510029 22.594782
v -31.927203 0.731488 12.897778
v -24.925695 0.731463 3.261160
v -13.338228 -0.496626 2.924134
v -19.513605 14.174154 22.319036
v -31.082896 13.651035 18.495946
v -33.632566 9.327985 4.792557
v -18.570026 12.089726 1.961695
v -11.403097 12.099246 8.424432
v -21.719418 23.881365 12.842349
v -23.432579 -0.444588 18.696146
v -16.717364 -0.581303 16.259603
v -18.609050 0.407819 22.198589
v -11.899042 -0.028169 10.063113
v -16.717364 -0.756219 7.813156
v -27.541171 -0.601412 13.021319
v -29.383176 0.407839 18.697894
v -23.425790 -0.601405 7.357095
v -29.916396 0.047524 7.041308
v -18.557732 -0.159712 3.207624
v -10.761542 5.608772 13.165959
v -10.761542 3.873628 1.483019
v -22.482980 7.813928 24.064664
v -15.063200 5.973536 22.152423
v -32.982148 5.777150 16.202498
v -29.141754 7.813952 21.901095
v -30.386034 4.637410 2.591674
v -34.501399 4.637405 8.255992
v -14.876893 4.687561 -0.484061
v -21.986285 5.337490 1.313382
v -13.920414 12.957511 17.948484
v -26.395062 17.252776 21.590823
v -33.595733 11.681030 11.667915
v -26.730583 11.585225 2.454737
v -13.739464 14.712508 4.201601
v -20.638750 21.463627 18.391440
v -15.579895 20.438504 12.430350
v -27.307384 20.873630 16.233155
v -27.532018 18.388799 8.848124
v -19.701674 20.273255 6.762352
vt 0.327341 0.388228
vt 0.458664 0.374993
vt 0.411146 0.461318
vt 0.590062 0.434746
vt 0.273525 0.466904
vt 0.567993 0.367818
vt 0.483759 0.560715
vt 0.337905 0.573859
vt 0.272818 0.381669
vt 0.548429 0.600736
vt 0.270973 0.592491
vt 0.422412 0.688425
vt 0.331122 0.704125
vt 0.509213 0.685895
vt 0.158742 0.011472
vt 0.247567 0.006516
vt 0.209351 0.088743
vt 0.296621 0.119935
vt 0.087656 0.071289
vt 0.307245 0.023395
vt 0.244474 0.209326
vt 0.139907 0.179157
vt 0.069054 0.000998
vt 0.291870 0.264485
vt 0.034616 0.143122
vt 0.000911 0.071289
vt 0.209821 0.319935
vt 0.096724 0.281882
vt 0.157893 0.365997
vt 0.471561 0.207696
vt 0.545350 0.257416
vt 0.442511 0.294730
vt 0.545350 0.128064
vt 0.516380 0.348367
vt 0.379591 0.207824
vt 0.442615 0.121080
vt 0.619139 0.162521
vt 0.597099 0.293843
vt 0.419343 0.354434
vt 0.351382 0.294756
vt 0.517166 0.057534
vt 0.597099 0.053192
vt 0.312422 0.205932
vt 0.343216 0.116244
vt 0.419645 0.058353
vt 0.573536 0.000998
vt 0.336024 0.048101
vt 0.277375 0.846233
vt 0.214253 0.933034
vt 0.183353 0.839923
vt 0.094337 0.901092
vt 0.199902 0.754943
vt 0.106610 0.999002
vt 0.097777 0.787995
vt 0.000911 0.963200
vt 0.111748 0.705946
vt 0.115855 0.384698
vt 0.212892 0.367818
vt 0.153566 0.481238
vt 0.267195 0.453054
vt 0.051591 0.481238
vt 0.199040 0.578640
vt 0.093655 0.625787
vt 0.181809 0.690274
vt 0.893110 0.573170
vt 0.833293 0.656792
vt 0.822572 0.528155
vt 0.726892 0.600811
vt 0.906758 0.475649
vt 0.761460 0.706510
vt 0.719166 0.475838
vt 0.832525 0.419280
vt 0.593841 0.493168
vt 0.679000 0.401861
vt 0.844990 0.356256
vt 0.911917 0.395716
vn -0.068282 -0.988801 -0.132705
vn -0.068282 -0.988801 -0.132705
vn -0.068282 -0.988801 -0.132705
vn 0.294440 -0.944663 0.144627
vn 0.294440 -0.944663 0.144627
vn 0.294440 -0.944663 0.144627
vn 0.129808 -0.989297 -0.066642
vn 0.129808 -0.989297 -0.066642
vn 0.129808 -0.989297 -0.066642
vn 0.129738 -0.987058 0.094261
vn 0.129738 -0.987058 0.094261
vn 0.129738 -0.987058 0.094261
vn -0.032924 -0.988320 0.148796
vn -0.032924 -0.988320 0.148796
vn -0.032924 -0.988320 0.148796
vn 0.937947 -0.292129 0.186860
vn 0.937947 -0.292129 0.186860
vn 0.937947 -0.292129 0.186860
vn 0.019992 -0.234434 0.971927
vn 0.019992 -0.234434 0.971927
vn 0.019992 -0.234434 0.971927
vn -0.845468 -0.404858 0.348245
vn -0.845468 -0.404858 0.348245
vn -0.845468 -0.404858 0.348245
vn -0.393885 -0.660242 -0.639480
vn -0.393885 -0.660242 -0.639480
vn -0.393885 -0.660242 -0.639480
vn -0.081046 -0.564217 -0.821639
vn -0.081046 -0.564217 -0.821639
vn -0.081046 -0.564217 -0.821639
vn 0.902082 0.007733 0.431496
vn 0.902082 0.007733 0.431496
vn 0.902082 0.007733 0.431496
vn -0.307452 -0.100538 0.946238
vn -0.307452 -0.100538 0.946238
vn -0.307452 -0.100538 0.946238
vn -0.914504 -0.337414 0.223234
vn -0.914504 -0.337414 0.223234
vn -0.914504 -0.337414 0.223234
vn -0.115999 -0.323144 -0.939214
vn -0.115999 -0.323144 -0.939214
vn -0.115999 -0.323144 -0.939214
vn 0.308411 -0.456957 -0.834310
vn 0.308411 -0.456957 -0.834310
vn 0.308411 -0.456957 -0.834310
vn 0.609131 0.446992 0.655101
vn 0.609131 0.446992 0.655101
vn 0.609131 0.446992 0.655101
vn -0.711522 0.519997 0.472588
vn -0.711522 0.519997 0.472588
vn -0.711522 0.519997 0.472588
vn -0.767347 0.607933 -0.203950
vn -0.767347 0.607933 -0.203950
vn -0.767347 0.607933 -0.203950
vn -0.082878 0.495696 -0.864533
vn -0.082878 0.495696 -0.864533
vn -0.082878 0.495696 -0.864533
vn 0.849899 0.502255 -0.159408
vn 0.849899 0.502255 -0.159408
vn 0.849899 0.502255 -0.159408
vn 0.441343 0.828327 -0.345095
vn 0.441343 0.828327 -0.345095
vn 0.441343 0.828327 -0.345095
vn 0.525216 0.749075 -0.403777
vn 0.525216 0.749075 -0.403777
vn 0.525216 0.749075 -0.403777
vn 0.114765 0.514404 -0.849834
vn 0.114765 0.514404 -0.849834
vn 0.114765 0.514404 -0.849834
vn -0.331894 0.758786 -0.560438
vn -0.331894 0.758786 -0.560438
vn -0.331894 0.758786 -0.560438
vn -0.337855 0.623089 -0.705417
vn -0.337855 0.623089 -0.705417
vn -0.337855 0.623089 -0.705417
vn -0.425473 0.592602 -0.683956
vn -0.425473 0.592602 -0.683956
vn -0.425473 0.592602 -0.683956
vn -0.570941 0.783218 -0.246162
vn -0.570941 0.783218 -0.246162
vn -0.570941 0.783218 -0.246162
vn -0.766381 0.615532 -0.183796
vn -0.766381 0.615532 -0.183796
vn -0.766381 0.615532 -0.183796
vn -0.850619 0.497733 0.169438
vn -0.850619 0.497733 0.169438
vn -0.850619 0.497733 0.169438
vn -0.215339 0.879204 0.425005
vn -0.215339 0.879204 0.425005
vn -0.215339 0.879204 0.425005
vn -0.253850 0.780788 0.570903
vn -0.253850 0.780788 0.570903
vn -0.253850 0.780788 0.570903
vn 0.125668 0.485536 0.865137
vn 0.125668 0.485536 0.865137
vn 0.125668 0.485536 0.865137
vn 0.484818 0.832452 0.268282
vn 0.484818 0.832452 0.268282
vn 0.484818 0.832452 0.268282
vn 0.692810 0.521248 0.498312
vn 0.692810 0.521248 0.498312
vn 0.692810 0.521248 0.498312
vn 0.910893 0.355987 0.208680
vn 0.910893 0.355987 0.208680
vn 0.910893 0.355987 0.208680
vn 0.898682 0.321687 -0.298141
vn 0.898682 0.321687 -0.298141
vn 0.898682 0.321687 -0.298141
vn 0.459444 0.332780 -0.823510
vn 0.459444 0.332780 -0.823510
vn 0.459444 0.332780 -0.823510
vn 0.200449 0.396080 -0.896070
vn 0.200449 0.396080 -0.896070
vn 0.200449 0.396080 -0.896070
vn -0.067762 0.129270 -0.989291
vn -0.067762 0.129270 -0.989291
vn -0.067762 0.129270 -0.989291
vn -0.155226 0.062237 -0.985917
vn -0.155226 0.062237 -0.985917
vn -0.155226 0.062237 -0.985917
vn -0.366709 0.174927 -0.913742
vn -0.366709 0.174927 -0.913742
vn -0.366709 0.174927 -0.913742
vn -0.987752 0.149172 -0.045761
vn -0.987752 0.149172 -0.045761
vn -0.987752 0.149172 -0.045761
vn -0.982493 0.037979 0.182390
vn -0.982493 0.037979 0.182390
vn -0.982493 0.037979 0.182390
vn -0.941740 0.137787 0.306823
vn -0.941740 0.137787 0.306823
vn -0.941740 0.137787 0.306823
vn -0.646740 0.212282 0.732573
vn -0.646740 0.212282 0.732573
vn -0.646740 0.212282 0.732573
vn -0.306772 0.120307 0.944149
vn -0.306772 0.120307 0.944149
vn -0.306772 0.120307 0.944149
vn 0.013555 0.258758 0.965847
vn 0.013555 0.258758 0.965847
vn 0.013555 0.258758 0.965847
vn 0.625189 0.324867 0.709648
vn 0.625189 0.324867 0.709648
vn 0.625189 0.324867 0.709648
vn 0.898313 0.109180 0.425575
vn 0.898313 0.109180 0.425575
vn 0.898313 0.109180 0.425575
vn 0.939705 0.257388 0.225180
vn 0.939705 0.257388 0.225180
vn 0.939705 0.257388 0.225180
vn -0.222383 0.204051 -0.953367
vn -0.222383 0.204051 -0.953367
vn -0.222383 0.204051 -0.953367
vn -0.257172 -0.454298 -0.852922
vn -0.257172 -0.454298 -0.852922
vn -0.257172 -0.454298 -0.852922
vn -0.057839 -0.357294 -0.932199
vn -0.057839 -0.357294 -0.932199
vn -0.057839 -0.357294 -0.932199
vn -0.778209 -0.273335 -0.565402
vn -0.778209 -0.273335 -0.565402
vn -0.778209 -0.273335 -0.565402
vn -0.677508 -0.546520 -0.492238
vn -0.677508 -0.546520 -0.492238
vn -0.677508 -0.546520 -0.492238
vn -0.719304 -0.674012 -0.168255
vn -0.719304 -0.674012 -0.168255
vn -0.719304 -0.674012 -0.168255
vn -0.835410 0.041883 0.548029
vn -0.835410 0.041883 0.548029
vn -0.835410 0.041883 0.548029
vn -0.765294 -0.234344 0.599506
vn -0.765294 -0.234344 0.599506
vn -0.765294 -0.234344 0.599506
vn -0.584102 -0.306098 0.751751
vn -0.584102 -0.306098 0.751751
vn -0.584102 -0.306098 0.751751
vn 0.277851 0.131454 0.951588
vn 0.277851 0.131454 0.951588
vn 0.277851 0.131454 0.951588
vn 0.217026 -0.130240 0.967439
vn 0.217026 -0.130240 0.967439
vn 0.217026 -0.130240 0.967439
vn 0.545077 -0.340909 0.765945
vn 0.545077 -0.340909 0.765945
vn 0.545077 -0.340909 0.765945
vn 0.995961 0.088811 -0.013190
vn 0.995961 0.088811 -0.013190
vn 0.995961 0.088811 -0.013190
vn 0.976198 -0.214529 0.031862
vn 0.976198 -0.214529 0.031862
vn 0.976198 -0.214529 0.031862
vn 0.833965 -0.535554 -0.132981
vn 0.833965 -0.535554 -0.132981
vn 0.833965 -0.535554 -0.132981
vn -0.069536 -0.992478 -0.100759
vn -0.069536 -0.992478 -0.100759
vn -0.069536 -0.992478 -0.100759
vn -0.014558 -0.992336 -0.122709
vn -0.014558 -0.992336 -0.122709
vn -0.014558 -0.992336 -0.122709
vn -0.135938 -0.955663 -0.261206
vn -0.135938 -0.955663 -0.261206
vn -0.135938 -0.955663 -0.261206
vn -0.081918 -0.956161 -0.281149
vn -0.081918 -0.956161 -0.281149
vn -0.081918 -0.956161 -0.281149
vn -0.095886 -0.992951 -0.069667
vn -0.095886 -0.992951 -0.069667
vn -0.095886 -0.992951 -0.069667
vn -0.291050 -0.956635 0.011792
vn -0.291050 -0.956635 0.011792
vn -0.291050 -0.956635 0.011792
vn -0.291880 -0.953524 0.074816
vn -0.291880 -0.953524 0.074816
vn -0.291880 -0.953524 0.074816
vn -0.140583 -0.981641 0.128910
vn -0.140583 -0.981641 0.128910
vn -0.140583 -0.981641 0.128910
vn -0.129615 -0.905639 0.403755
vn -0.129615 -0.905639 0.403755
vn -0.129615 -0.905639 0.403755
vn 0.131719 -0.990541 0.038445
vn 0.131719 -0.990541 0.038445
vn 0.131719 -0.990541 0.038445
vn 0.140007 -0.989938 0.020500
vn 0.140007 -0.989938 0.020500
vn 0.140007 -0.989938 0.020500
vn -0.170853 -0.985085 0.020400
vn -0.170853 -0.985085 0.020400
vn -0.170853 -0.985085 0.020400
vn -0.132366 -0.905702 0.402719
vn -0.132366 -0.905702 0.402719
vn -0.132366 -0.905702 0.402719
vn 0.044539 -0.983039 0.177909
vn 0.044539 -0.983039 0.177909
vn 0.044539 -0.983039 0.177909
vn 0.233159 -0.944465 0.231564
vn 0.233159 -0.944465 0.231564
vn 0.233159 -0.944465 0.231564
s off
g Bush1 NaturePack
usemtl Bush1SG
f 1/30/1 14/31/2 13/32/3
f 2/38/4 14/31/5 16/37/6
f 1/30/7 13/32/8 18/35/9
f 1/30/10 18/35/11 20/36/12
f 1/30/13 20/36/14 17/33/15
f 2/1/16 16/2/17 23/3/18
f 3/57/19 15/58/20 25/59/21
f 4/15/22 19/16/23 27/17/24
f 5/45/25 21/44/26 29/47/27
f 6/42/28 22/41/29 31/46/30
f 2/1/31 23/3/32 26/5/33
f 3/57/34 25/59/35 28/61/36
f 4/15/37 27/17/38 30/19/39
f 5/65/40 29/66/41 32/67/42
f 6/76/43 31/72/44 24/75/45
f 7/11/46 33/8/47 38/13/48
f 8/21/49 34/24/50 40/27/51
f 9/25/52 35/22/53 41/28/54
f 10/71/55 36/68/56 42/73/57
f 11/7/58 37/10/59 39/12/60
f 39/48/61 42/49/62 12/50/63
f 39/12/64 37/10/65 42/14/66
f 37/74/67 10/71/68 42/73/69
f 42/49/70 41/51/71 12/50/72
f 42/49/73 36/53/74 41/51/75
f 36/53/76 9/55/77 41/51/78
f 41/28/79 40/27/80 12/29/81
f 41/28/82 35/22/83 40/27/84
f 35/22/85 8/21/86 40/27/87
f 40/54/88 38/52/89 12/50/90
f 40/54/91 34/56/92 38/52/93
f 34/63/94 7/62/95 38/64/96
f 38/52/97 39/48/98 12/50/99
f 38/13/100 33/8/101 39/12/102
f 33/8/103 11/7/104 39/12/105
f 24/4/106 37/10/107 11/7/108
f 24/75/109 31/72/110 37/74/111
f 31/72/112 10/71/113 37/74/114
f 32/67/115 36/68/116 10/71/117
f 32/67/118 29/66/119 36/68/120
f 29/66/121 9/70/122 36/68/123
f 30/19/124 35/22/125 9/25/126
f 30/19/127 27/17/128 35/22/129
f 27/17/130 8/21/131 35/22/132
f 28/18/133 34/24/134 8/21/135
f 28/61/136 25/59/137 34/63/138
f 25/59/139 7/62/140 34/63/141
f 26/5/142 33/8/143 7/11/144
f 26/5/145 23/3/146 33/8/147
f 23/3/148 11/7/149 33/8/150
f 31/72/151 32/67/152 10/71/153
f 31/72/154 22/69/155 32/67/156
f 22/69/157 5/65/158 32/67/159
f 29/26/160 30/19/161 9/25/162
f 29/26/163 21/23/164 30/19/165
f 21/23/166 4/15/167 30/19/168
f 27/17/169 28/18/170 8/21/171
f 27/17/172 19/16/173 28/18/174
f 19/16/175 3/20/176 28/18/177
f 25/59/178 26/60/179 7/62/180
f 25/59/181 15/58/182 26/60/183
f 15/9/184 2/1/185 26/5/186
f 23/3/187 24/4/188 11/7/189
f 23/3/190 16/2/191 24/4/192
f 16/2/193 6/6/194 24/4/195
f 17/33/196 22/41/197 6/42/198
f 17/33/199 20/36/200 22/41/201
f 20/36/202 5/45/203 22/41/204
f 20/36/205 21/44/206 5/45/207
f 20/36/208 18/35/209 21/44/210
f 18/35/211 4/43/212 21/44/213
f 18/35/214 19/40/215 4/43/216
f 18/35/217 13/32/218 19/40/219
f 13/32/220 3/39/221 19/40/222
f 16/37/223 17/33/224 6/42/225
f 16/37/226 14/31/227 17/33/228
f 14/31/229 1/30/230 17/33/231
f 13/32/232 15/34/233 3/39/234
f 13/32/235 14/31/236 15/34/237
f 14/31/238 2/38/239 15/34/240
