# This file uses meters as units for non-parametric coordinates.

mtllib roundTable.mtl
g default
v 34.451600 -3.675217 -34.451600
v 0.000000 -3.675217 -48.721917
v -34.451600 -3.675217 -34.451600
v -48.721917 -3.675217 0.000000
v -34.451600 -3.675217 34.451600
v 0.000000 -3.675217 48.721921
v 34.451603 -3.675217 34.451603
v 48.721925 -3.675217 0.000000
v 34.451600 3.675217 -34.451600
v 0.000000 3.675217 -48.721917
v -34.451600 3.675217 -34.451600
v -48.721917 3.675217 0.000000
v -34.451600 3.675217 34.451600
v 0.000000 3.675217 48.721921
v 34.451603 3.675217 34.451603
v 48.721925 3.675217 0.000000
v 5.295842 21.294727 -5.295840
v 0.000003 21.294727 -7.489461
v -5.295839 21.294727 -5.295840
v -7.489461 21.294727 0.000002
v -5.295839 21.294727 5.295840
v 0.000003 21.294727 7.489464
v 5.295844 21.294727 5.295844
v 7.489468 21.294727 0.000002
v 5.295842 125.148496 -5.295840
v 0.000003 125.148496 -7.489461
v -5.295839 125.148496 -5.295840
v -7.489461 125.148496 0.000002
v -5.295839 125.148496 5.295840
v 0.000003 125.148496 7.489464
v 5.295844 125.148496 5.295844
v 7.489468 125.148496 0.000002
v 6.424307 128.802745 -6.424306
v 0.000003 128.802745 -9.085355
v -6.424304 128.802745 -6.424306
v -9.085355 128.802745 0.000002
v -6.424304 128.802745 6.424305
v 0.000003 128.802745 9.085358
v 6.424309 128.802745 6.424310
v 9.085362 128.802745 0.000002
v 54.574091 131.388183 -54.574102
v -0.000002 131.388183 -77.179615
v -54.574098 131.388183 -54.574102
v -77.179622 131.388183 -0.000001
v -54.574098 131.388183 54.574083
v -0.000002 131.388183 77.179615
v 54.574098 131.388183 54.574102
v 77.179630 131.388183 -0.000001
v 54.574091 136.199380 -54.574102
v -0.000002 136.199380 -77.179615
v -54.574098 136.199380 -54.574102
v -77.179622 136.199380 -0.000001
v -54.574098 136.199380 54.574083
v -0.000002 136.199380 77.179615
v 54.574098 136.199380 54.574102
v 77.179630 136.199380 -0.000001
vt 0.610485 0.045765
vt 0.500000 0.000000
vt 0.389515 0.045765
vt 0.343750 0.156250
vt 0.389515 0.266735
vt 0.500000 0.312500
vt 0.610485 0.266735
vt 0.656250 0.156250
vt 0.375000 0.312500
vt 0.406250 0.312500
vt 0.437500 0.312500
vt 0.468750 0.312500
vt 0.500000 0.312500
vt 0.531250 0.312500
vt 0.562500 0.312500
vt 0.593750 0.312500
vt 0.625000 0.312500
vt 0.375000 0.688440
vt 0.406250 0.688440
vt 0.437500 0.688440
vt 0.468750 0.688440
vt 0.500000 0.688440
vt 0.531250 0.688440
vt 0.562500 0.688440
vt 0.593750 0.688440
vt 0.625000 0.688440
vt 0.610485 0.733265
vt 0.500000 0.687500
vt 0.389515 0.733265
vt 0.343750 0.843750
vt 0.389515 0.954235
vt 0.500000 1.000000
vt 0.610485 0.954235
vt 0.656250 0.843750
vt 0.610485 0.954235
vt 0.500000 1.000000
vt 0.389515 0.954235
vt 0.343750 0.843750
vt 0.389515 0.733265
vt 0.500000 0.687500
vt 0.610485 0.733265
vt 0.656250 0.843750
vt 0.610485 0.954235
vt 0.500000 1.000000
vt 0.389515 0.954235
vt 0.343750 0.843750
vt 0.389515 0.733265
vt 0.500000 0.687500
vt 0.610485 0.733265
vt 0.656250 0.843750
vt 0.610485 0.954235
vt 0.500000 1.000000
vt 0.389515 0.954235
vt 0.343750 0.843750
vt 0.389515 0.733265
vt 0.500000 0.687500
vt 0.610485 0.733265
vt 0.656250 0.843750
vt 0.610485 0.954235
vt 0.500000 1.000000
vt 0.389515 0.954235
vt 0.343750 0.843750
vt 0.389515 0.733265
vt 0.500000 0.687500
vt 0.610485 0.733265
vt 0.656250 0.843750
vt 0.610485 0.954235
vt 0.500000 1.000000
vt 0.389515 0.954235
vt 0.343750 0.843750
vt 0.389515 0.733265
vt 0.500000 0.687500
vt 0.610485 0.733265
vt 0.656250 0.843750
vn 0.382683 0.000000 -0.923880
vn 0.382683 0.000000 -0.923880
vn 0.382683 0.000000 -0.923880
vn 0.382683 0.000000 -0.923880
vn -0.382683 0.000000 -0.923880
vn -0.382683 0.000000 -0.923880
vn -0.382683 0.000000 -0.923880
vn -0.382683 0.000000 -0.923880
vn -0.923880 0.000000 -0.382683
vn -0.923880 0.000000 -0.382683
vn -0.923880 0.000000 -0.382683
vn -0.923880 0.000000 -0.382683
vn -0.923880 0.000000 0.382683
vn -0.923880 0.000000 0.382683
vn -0.923880 0.000000 0.382683
vn -0.923880 0.000000 0.382683
vn -0.382683 0.000000 0.923880
vn -0.382683 0.000000 0.923880
vn -0.382683 0.000000 0.923880
vn -0.382683 0.000000 0.923880
vn 0.382683 0.000000 0.923880
vn 0.382683 0.000000 0.923880
vn 0.382683 0.000000 0.923880
vn 0.382683 0.000000 0.923880
vn 0.923880 0.000000 0.382683
vn 0.923880 0.000000 0.382683
vn 0.923880 0.000000 0.382683
vn 0.923880 0.000000 0.382683
vn 0.923880 0.000000 -0.382684
vn 0.923880 0.000000 -0.382684
vn 0.923880 0.000000 -0.382684
vn 0.923880 0.000000 -0.382684
vn 0.000000 -1.000000 -0.000000
vn 0.000000 -1.000000 -0.000000
vn 0.000000 -1.000000 -0.000000
vn 0.000000 -1.000000 -0.000000
vn 0.000000 -1.000000 -0.000000
vn 0.000000 -1.000000 -0.000000
vn 0.000000 -1.000000 -0.000000
vn 0.000000 -1.000000 -0.000000
vn 0.000000 1.000000 0.000000
vn 0.000000 1.000000 0.000000
vn 0.000000 1.000000 0.000000
vn 0.000000 1.000000 0.000000
vn 0.000000 1.000000 0.000000
vn 0.000000 1.000000 0.000000
vn 0.000000 1.000000 0.000000
vn 0.000000 1.000000 0.000000
vn 0.160650 0.907617 -0.387844
vn 0.160650 0.907617 -0.387844
vn 0.160650 0.907617 -0.387844
vn 0.160650 0.907617 -0.387844
vn -0.160650 0.907617 -0.387844
vn -0.160650 0.907617 -0.387844
vn -0.160650 0.907617 -0.387844
vn -0.160650 0.907617 -0.387844
vn -0.387844 0.907617 -0.160650
vn -0.387844 0.907617 -0.160650
vn -0.387844 0.907617 -0.160650
vn -0.387844 0.907617 -0.160650
vn -0.387844 0.907617 0.160650
vn -0.387844 0.907617 0.160650
vn -0.387844 0.907617 0.160650
vn -0.387844 0.907617 0.160650
vn -0.160650 0.907617 0.387844
vn -0.160650 0.907617 0.387844
vn -0.160650 0.907617 0.387844
vn -0.160650 0.907617 0.387844
vn 0.160650 0.907617 0.387844
vn 0.160650 0.907617 0.387844
vn 0.160650 0.907617 0.387844
vn 0.160650 0.907617 0.387844
vn 0.387844 0.907617 0.160650
vn 0.387844 0.907617 0.160650
vn 0.387844 0.907617 0.160650
vn 0.387844 0.907617 0.160650
vn 0.387844 0.907617 -0.160651
vn 0.387844 0.907617 -0.160651
vn 0.387844 0.907617 -0.160650
vn 0.387844 0.907617 -0.160650
vn 0.382685 0.000000 -0.923879
vn 0.382685 0.000000 -0.923879
vn 0.382685 0.000000 -0.923879
vn 0.382685 0.000000 -0.923879
vn -0.382685 0.000000 -0.923879
vn -0.382685 0.000000 -0.923879
vn -0.382685 0.000000 -0.923879
vn -0.382685 0.000000 -0.923879
vn -0.923879 0.000000 -0.382685
vn -0.923879 0.000000 -0.382685
vn -0.923879 0.000000 -0.382685
vn -0.923879 0.000000 -0.382685
vn -0.923879 0.000000 0.382686
vn -0.923879 0.000000 0.382686
vn -0.923879 0.000000 0.382686
vn -0.923879 0.000000 0.382686
vn -0.382686 0.000000 0.923879
vn -0.382686 0.000000 0.923879
vn -0.382686 0.000000 0.923879
vn -0.382686 0.000000 0.923879
vn 0.382685 0.000000 0.923879
vn 0.382685 0.000000 0.923879
vn 0.382685 0.000000 0.923879
vn 0.382685 0.000000 0.923879
vn 0.923879 0.000000 0.382686
vn 0.923879 0.000000 0.382686
vn 0.923879 0.000000 0.382686
vn 0.923879 0.000000 0.382686
vn 0.923879 0.000000 -0.382686
vn 0.923879 0.000000 -0.382686
vn 0.923879 0.000000 -0.382686
vn 0.923879 0.000000 -0.382686
vn 0.354887 -0.374170 -0.856769
vn 0.354887 -0.374170 -0.856769
vn 0.354887 -0.374170 -0.856769
vn 0.354887 -0.374170 -0.856769
vn -0.354886 -0.374170 -0.856769
vn -0.354886 -0.374170 -0.856769
vn -0.354886 -0.374170 -0.856769
vn -0.354886 -0.374170 -0.856769
vn -0.856768 -0.374170 -0.354886
vn -0.856768 -0.374170 -0.354886
vn -0.856769 -0.374170 -0.354886
vn -0.856768 -0.374170 -0.354886
vn -0.856768 -0.374170 0.354887
vn -0.856768 -0.374170 0.354887
vn -0.856768 -0.374170 0.354887
vn -0.856768 -0.374170 0.354887
vn -0.354887 -0.374170 0.856769
vn -0.354887 -0.374170 0.856769
vn -0.354887 -0.374170 0.856769
vn -0.354887 -0.374170 0.856769
vn 0.354887 -0.374171 0.856768
vn 0.354887 -0.374171 0.856768
vn 0.354887 -0.374171 0.856768
vn 0.354887 -0.374171 0.856768
vn 0.856768 -0.374170 0.354887
vn 0.856768 -0.374170 0.354887
vn 0.856768 -0.374170 0.354887
vn 0.856768 -0.374170 0.354887
vn 0.856768 -0.374170 -0.354887
vn 0.856768 -0.374170 -0.354887
vn 0.856768 -0.374170 -0.354887
vn 0.856768 -0.374170 -0.354887
vn 0.015714 -0.999157 -0.037936
vn 0.015714 -0.999157 -0.037936
vn 0.015714 -0.999157 -0.037936
vn 0.015714 -0.999157 -0.037936
vn -0.015714 -0.999157 -0.037936
vn -0.015714 -0.999157 -0.037936
vn -0.015714 -0.999157 -0.037936
vn -0.015714 -0.999157 -0.037936
vn -0.037936 -0.999157 -0.015714
vn -0.037936 -0.999157 -0.015714
vn -0.037936 -0.999157 -0.015714
vn -0.037936 -0.999157 -0.015714
vn -0.037936 -0.999157 0.015714
vn -0.037936 -0.999157 0.015714
vn -0.037936 -0.999157 0.015714
vn -0.037936 -0.999157 0.015714
vn -0.015714 -0.999157 0.037936
vn -0.015714 -0.999157 0.037936
vn -0.015714 -0.999157 0.037936
vn -0.015714 -0.999157 0.037936
vn 0.015714 -0.999157 0.037936
vn 0.015714 -0.999157 0.037936
vn 0.015714 -0.999157 0.037936
vn 0.015714 -0.999157 0.037936
vn 0.037936 -0.999157 0.015714
vn 0.037936 -0.999157 0.015714
vn 0.037936 -0.999157 0.015714
vn 0.037936 -0.999157 0.015714
vn 0.037936 -0.999157 -0.015714
vn 0.037936 -0.999157 -0.015714
vn 0.037936 -0.999157 -0.015714
vn 0.037936 -0.999157 -0.015714
vn 0.382686 0.000000 -0.923878
vn 0.382686 0.000000 -0.923878
vn 0.382686 0.000000 -0.923878
vn 0.382686 0.000000 -0.923878
vn -0.382686 0.000000 -0.923878
vn -0.382686 0.000000 -0.923878
vn -0.382686 0.000000 -0.923878
vn -0.382686 0.000000 -0.923878
vn -0.923878 0.000000 -0.382686
vn -0.923878 0.000000 -0.382686
vn -0.923878 0.000000 -0.382686
vn -0.923878 0.000000 -0.382686
vn -0.923878 0.000000 0.382686
vn -0.923878 0.000000 0.382686
vn -0.923878 0.000000 0.382686
vn -0.923878 0.000000 0.382686
vn -0.382686 0.000000 0.923878
vn -0.382686 0.000000 0.923878
vn -0.382686 0.000000 0.923878
vn -0.382686 0.000000 0.923878
vn 0.382686 0.000000 0.923878
vn 0.382686 0.000000 0.923878
vn 0.382686 0.000000 0.923878
vn 0.382686 0.000000 0.923878
vn 0.923878 0.000000 0.382686
vn 0.923878 0.000000 0.382686
vn 0.923878 0.000000 0.382686
vn 0.923878 0.000000 0.382686
vn 0.923878 0.000000 -0.382687
vn 0.923878 0.000000 -0.382687
vn 0.923878 0.000000 -0.382687
vn 0.923878 0.000000 -0.382687
s off
g table2
usemtl lambert2SG
f 1/9/1 2/10/2 10/19/3 9/18/4
f 2/10/5 3/11/6 11/20/7 10/19/8
f 3/11/9 4/12/10 12/21/11 11/20/12
f 4/12/13 5/13/14 13/22/15 12/21/16
f 5/13/17 6/14/18 14/23/19 13/22/20
f 6/14/21 7/15/22 15/24/23 14/23/24
f 7/15/25 8/16/26 16/25/27 15/24/28
f 8/16/29 1/17/30 9/26/31 16/25/32
f 1/1/33 8/8/34 7/7/35 6/6/36 5/5/37 4/4/38 3/3/39 2/2/40
usemtl lambert3SG
f 49/67/41 50/68/42 51/69/43 52/70/44 53/71/45 54/72/46 55/73/47 56/74/48
usemtl lambert2SG
f 9/33/49 10/32/50 18/36/51 17/35/52
f 10/32/53 11/31/54 19/37/55 18/36/56
f 11/31/57 12/30/58 20/38/59 19/37/60
f 12/30/61 13/29/62 21/39/63 20/38/64
f 13/29/65 14/28/66 22/40/67 21/39/68
f 14/28/69 15/27/70 23/41/71 22/40/72
f 15/27/73 16/34/74 24/42/75 23/41/76
f 16/34/77 9/33/78 17/35/79 24/42/80
f 17/35/81 18/36/82 26/44/83 25/43/84
f 18/36/85 19/37/86 27/45/87 26/44/88
f 19/37/89 20/38/90 28/46/91 27/45/92
f 20/38/93 21/39/94 29/47/95 28/46/96
f 21/39/97 22/40/98 30/48/99 29/47/100
f 22/40/101 23/41/102 31/49/103 30/48/104
f 23/41/105 24/42/106 32/50/107 31/49/108
f 24/42/109 17/35/110 25/43/111 32/50/112
f 25/43/113 26/44/114 34/52/115 33/51/116
f 26/44/117 27/45/118 35/53/119 34/52/120
f 27/45/121 28/46/122 36/54/123 35/53/124
f 28/46/125 29/47/126 37/55/127 36/54/128
f 29/47/129 30/48/130 38/56/131 37/55/132
f 30/48/133 31/49/134 39/57/135 38/56/136
f 31/49/137 32/50/138 40/58/139 39/57/140
f 32/50/141 25/43/142 33/51/143 40/58/144
usemtl lambert3SG
f 33/51/145 34/52/146 42/60/147 41/59/148
f 34/52/149 35/53/150 43/61/151 42/60/152
f 35/53/153 36/54/154 44/62/155 43/61/156
f 36/54/157 37/55/158 45/63/159 44/62/160
f 37/55/161 38/56/162 46/64/163 45/63/164
f 38/56/165 39/57/166 47/65/167 46/64/168
f 39/57/169 40/58/170 48/66/171 47/65/172
f 40/58/173 33/51/174 41/59/175 48/66/176
f 41/59/177 42/60/178 50/68/179 49/67/180
f 42/60/181 43/61/182 51/69/183 50/68/184
f 43/61/185 44/62/186 52/70/187 51/69/188
f 44/62/189 45/63/190 53/71/191 52/70/192
f 45/63/193 46/64/194 54/72/195 53/71/196
f 46/64/197 47/65/198 55/73/199 54/72/200
f 47/65/201 48/66/202 56/74/203 55/73/204
f 48/66/205 41/59/206 49/67/207 56/74/208
