# This file uses meters as units for non-parametric coordinates.

mtllib rock1.mtl
g default
v 21.649951 6.354397 -1.272032
v 30.658986 6.095974 11.746866
v 6.513035 6.309692 11.609782
v 7.245222 5.875801 19.273796
v 17.585827 -0.477102 24.319866
v 15.765906 -4.355118 19.099453
v 5.240324 -0.468452 7.636583
v 5.490229 -0.143491 14.992088
v 10.074574 -0.421750 21.821042
v 17.429821 8.351262 11.594704
v 6.493236 6.310091 3.666961
v 21.659499 6.563592 24.676724
v 28.452503 -7.182752 3.618097
v 13.238206 -7.203672 -1.258755
v 28.479124 -7.203632 19.499636
v 17.447319 -7.530791 11.586136
vt 0.001168 0.071337
vt 0.192168 0.188261
vt 0.000867 0.299777
vt 0.195886 0.000998
vt 0.198895 0.374244
vt 0.527603 0.412618
vt 0.533844 0.522857
vt 0.441022 0.474206
vt 0.533850 0.637106
vt 0.437019 0.375978
vt 0.436347 0.580007
vt 0.339468 0.707958
vt 0.537447 0.609730
vt 0.685252 0.668810
vt 0.603388 0.707958
vt 0.709437 0.560739
vt 0.711430 0.743901
vt 0.648894 0.375978
vt 0.868119 0.674567
vt 0.867736 0.446127
vt 0.550174 0.186981
vt 0.420589 0.374244
vt 0.359886 0.189169
vt 0.202575 0.303202
vt 0.420726 0.000998
vt 0.202860 0.188953
vt 0.213391 0.078714
vt 0.140852 0.473826
vt 0.335570 0.375978
vt 0.335871 0.594820
vt 0.141489 0.691840
vt 0.198895 0.791667
vt 0.189001 0.999002
vt 0.098418 0.958305
vt 0.097621 0.850263
vt 0.000867 0.693574
vn 0.300089 -0.187098 -0.935383
vn 0.300089 -0.187098 -0.935383
vn 0.300089 -0.187098 -0.935383
vn -0.214944 -0.746622 0.629566
vn -0.214944 -0.746622 0.629566
vn -0.214944 -0.746622 0.629566
vn 0.986656 -0.162806 -0.001868
vn 0.986656 -0.162806 -0.001868
vn 0.986656 -0.162806 -0.001868
vn -0.351902 0.210784 0.911995
vn -0.351902 0.210784 0.911995
vn -0.351902 0.210784 0.911995
vn -0.453230 -0.852810 0.259418
vn -0.455533 -0.848373 0.269729
vn -0.455930 -0.847583 0.271534
vn 0.168345 0.980942 -0.097023
vn 0.168345 0.980942 -0.097023
vn 0.168345 0.980942 -0.097023
vn 0.806715 0.205195 -0.554171
vn 0.806715 0.205195 -0.554171
vn 0.806715 0.205195 -0.554171
vn -0.972294 0.208992 0.104721
vn -0.972294 0.208992 0.104721
vn -0.972294 0.208992 0.104721
vn 0.166611 0.982737 0.080424
vn 0.166611 0.982737 0.080424
vn 0.166611 0.982737 0.080424
vn -0.304789 0.188184 -0.933644
vn -0.304789 0.188184 -0.933644
vn -0.304789 0.188184 -0.933644
vn 0.808798 0.191554 0.556015
vn 0.808798 0.191554 0.556015
vn 0.808798 0.191554 0.556015
vn -0.058900 0.983347 -0.171930
vn -0.058900 0.983347 -0.171930
vn -0.058900 0.983347 -0.171930
vn -0.797009 -0.188676 -0.573740
vn -0.797009 -0.188676 -0.573740
vn -0.797009 -0.188676 -0.573740
vn -0.455533 -0.848373 0.269729
vn -0.453230 -0.852810 0.259418
vn -0.453159 -0.852944 0.259103
vn -0.311989 0.132831 0.940754
vn -0.311989 0.132831 0.940754
vn -0.311989 0.132831 0.940754
vn -0.189037 -0.755579 0.627188
vn -0.189037 -0.755579 0.627188
vn -0.189037 -0.755579 0.627188
vn -0.110256 0.979347 0.169477
vn -0.110256 0.979347 0.169477
vn -0.110256 0.979347 0.169477
vn -0.987467 0.157804 0.002469
vn -0.987467 0.157804 0.002469
vn -0.987467 0.157804 0.002469
vn -0.183237 0.980354 0.073008
vn -0.183237 0.980354 0.073008
vn -0.183237 0.980354 0.073008
vn 0.283392 -0.211380 0.935418
vn 0.283392 -0.211380 0.935418
vn 0.283392 -0.211380 0.935418
vn -0.183824 0.982959 0.000508
vn -0.183824 0.982959 0.000508
vn -0.183824 0.982959 0.000508
vn -0.606213 -0.793353 0.055646
vn -0.606213 -0.793353 0.055646
vn -0.606213 -0.793353 0.055646
vn -0.823810 -0.148882 0.546965
vn -0.823810 -0.148882 0.546965
vn -0.823810 -0.148882 0.546965
vn -0.980364 0.195650 0.024665
vn -0.980364 0.195650 0.024665
vn -0.980364 0.195650 0.024665
vn 0.010653 -0.999524 -0.028945
vn 0.010653 -0.999524 -0.028945
vn 0.010653 -0.999524 -0.028945
vn -0.491492 -0.859691 0.139162
vn -0.491492 -0.859691 0.139162
vn -0.491492 -0.859691 0.139162
vn 0.030621 -0.999530 -0.001365
vn 0.030621 -0.999530 -0.001365
vn 0.030621 -0.999530 -0.001365
vn -0.215852 -0.915775 0.338767
vn -0.215852 -0.915775 0.338767
vn -0.215852 -0.915775 0.338767
s off
g Rock1 NaturePack
usemtl Rock1SG
f 1/28/1 13/29/2 14/30/3
f 6/14/4 5/17/5 9/15/6
f 13/1/7 2/2/8 15/3/9
f 12/32/10 4/33/11 9/34/12
f 8/13/13 6/14/14 9/15/15
f 2/21/16 1/22/17 10/23/18
f 2/2/19 13/1/20 1/4/21
f 4/6/22 3/7/23 8/8/24
f 12/25/25 2/21/26 10/23/27
f 11/31/28 1/28/29 14/30/30
f 12/5/31 15/3/32 2/2/33
f 1/22/34 11/24/35 10/23/36
f 7/11/37 11/9/38 14/12/39
f 6/14/40 8/13/41 16/16/42
f 5/35/43 12/32/44 9/34/45
f 5/17/46 6/14/47 15/19/48
f 4/27/49 12/25/50 10/23/51
f 3/7/52 11/9/53 8/8/54
f 3/26/55 4/27/56 10/23/57
f 15/36/58 12/32/59 5/35/60
f 11/24/61 3/26/62 10/23/63
f 8/8/64 7/11/65 14/12/66
f 4/6/67 8/8/68 9/10/69
f 11/9/70 7/11/71 8/8/72
f 16/16/73 14/18/74 13/20/75
f 16/16/76 8/13/77 14/18/78
f 15/19/79 16/16/80 13/20/81
f 16/16/82 15/19/83 6/14/84
