# This file uses meters as units for non-parametric coordinates.

mtllib branch.mtl
g default
v 35.811835 1.223030 39.591166
v 24.762939 0.770478 39.923093
v 19.156071 -1.022957 40.526100
v 35.784447 -0.508922 40.590738
v 24.665689 -0.964956 42.918754
v 35.729661 -0.508922 42.589871
v 24.663577 0.765119 43.932120
v 35.702262 1.223030 43.589438
v 24.677710 2.498926 42.946418
v 35.729652 2.954982 42.589871
v 24.732494 2.498926 40.947280
v 35.784436 2.954982 40.590738
v 42.100820 0.733928 40.261294
v 42.069657 -0.797658 41.207906
v 42.048537 -0.726747 42.938089
v 41.896030 0.758256 43.916142
v 42.273643 1.924428 42.749417
v 41.689295 2.541533 43.039174
v 41.960225 2.436405 41.108045
v 19.103922 0.769251 39.493351
v 18.148799 0.317466 40.616979
v 19.021763 -0.962702 42.492056
v 18.994354 0.769251 43.491623
v 18.089883 0.265103 42.275442
v 19.021752 2.501203 42.492056
v 19.076539 2.501204 40.492922
v 18.104911 1.691379 41.278150
v 22.935555 2.500068 40.748352
v 22.880770 2.500068 42.747491
v 24.264172 4.076332 41.404155
v 24.237191 4.076332 42.388664
v 23.379239 4.076895 41.306194
v 23.352258 4.076895 42.290703
v 24.026343 5.235115 41.008135
v 23.634665 5.213864 40.978818
vt 0.758944 0.674982
vt 0.702897 0.736318
vt 0.681209 0.674982
vt 0.741178 0.736318
vt 0.756577 0.781376
vt 0.868870 0.320239
vt 0.823524 0.365606
vt 0.765781 0.327575
vt 0.892865 0.331506
vt 0.763024 0.260298
vt 0.888778 0.256415
vt 0.822578 0.223490
vt 0.935369 0.039865
vt 0.848420 0.048288
vt 0.868023 0.000998
vt 0.903879 0.087067
vt 0.800677 0.039865
vt 0.935369 0.117600
vt 0.850456 0.112776
vt 0.798335 0.116310
vt 0.868023 0.156468
vt 0.677129 0.893478
vt 0.621085 0.954792
vt 0.599394 0.893478
vt 0.659367 0.954792
vt 0.608356 0.999002
vt 0.642928 0.243269
vt 0.700547 0.000998
vt 0.720662 0.241139
vt 0.625457 0.011533
vt 0.706798 0.670884
vt 0.629063 0.673015
vt 0.091528 0.248735
vt 0.011280 0.893186
vt 0.013794 0.246605
vt 0.104317 0.678949
vt 0.037792 0.002210
vt 0.143721 0.679031
vt 0.087725 0.898409
vt 0.105069 0.003031
vt 0.000984 0.000998
vt 0.126592 0.899474
vt 0.143099 0.008961
vt 0.906878 0.310620
vt 0.974680 0.158435
vt 0.984612 0.308489
vt 0.896945 0.160565
vt 0.446414 0.671068
vt 0.513832 0.670519
vt 0.513876 0.740391
vt 0.464220 0.241838
vt 0.575168 0.687648
vt 0.446575 0.891511
vt 0.531565 0.240773
vt 0.396874 0.240772
vt 0.575190 0.722058
vt 0.513920 0.890446
vt 0.515488 0.009037
vt 0.446147 0.000998
vt 0.620226 0.695847
vt 0.619400 0.711077
vt 0.257908 0.006465
vt 0.305089 0.245540
vt 0.237744 0.246605
vt 0.324107 0.000998
vt 0.255477 0.676351
vt 0.372435 0.246605
vt 0.322686 0.675168
vt 0.255432 0.746224
vt 0.392422 0.893186
vt 0.194119 0.728972
vt 0.255388 0.896279
vt 0.322734 0.895214
vt 0.194141 0.694562
vt 0.149082 0.703810
vt 0.149909 0.719040
vt 0.725342 0.000998
vt 0.792775 0.221523
vt 0.725429 0.220458
vn -0.095448 0.492562 0.865028
vn -0.095448 0.492562 0.865028
vn -0.095448 0.492562 0.865028
vn 0.960364 0.277504 0.026318
vn 0.960364 0.277504 0.026318
vn 0.960364 0.277504 0.026318
vn 0.113825 0.497961 -0.859697
vn 0.113825 0.497961 -0.859697
vn 0.113825 0.497961 -0.859697
vn 0.083484 0.996506 0.002288
vn 0.083484 0.996506 0.002288
vn 0.083484 0.996506 0.002288
vn -0.030563 0.499988 0.865493
vn -0.030563 0.499988 0.865493
vn -0.030563 0.499988 0.865493
vn -0.082950 -0.499120 0.862553
vn -0.082950 -0.499120 0.862553
vn -0.082950 -0.499120 0.862553
vn 0.966501 -0.064383 0.248457
vn 0.966501 -0.064383 0.248457
vn 0.966501 -0.064383 0.248457
vn -0.048498 0.498696 -0.865419
vn -0.048498 0.498696 -0.865419
vn -0.048498 0.498696 -0.865419
vn -0.041266 0.999148 -0.001131
vn -0.041266 0.999148 -0.001131
vn -0.041266 0.999148 -0.001131
vn 0.006487 0.494180 0.869335
vn 0.006487 0.494180 0.869335
vn 0.006487 0.494180 0.869335
vn 0.046430 -0.504828 0.861971
vn 0.046430 -0.504828 0.861971
vn 0.046430 -0.504828 0.861971
vn 0.030895 -0.999522 0.000847
vn 0.030895 -0.999522 0.000847
vn 0.030895 -0.999522 0.000847
vn -0.005549 -0.499786 -0.866131
vn -0.005549 -0.499786 -0.866131
vn -0.005549 -0.499786 -0.866131
vn -0.045767 -0.998951 -0.001254
vn -0.045767 -0.998951 -0.001254
vn -0.045767 -0.998951 -0.001254
vn 0.700149 0.378801 0.605228
vn 0.700149 0.378801 0.605228
vn 0.700149 0.378801 0.605228
vn 0.053250 -0.499782 -0.864513
vn 0.053250 -0.499782 -0.864513
vn 0.053250 -0.499782 -0.864513
vn -0.800083 -0.598022 -0.047305
vn -0.800083 -0.598022 -0.047305
vn -0.800083 -0.598022 -0.047305
vn -0.821221 0.294915 0.488488
vn -0.821221 0.294915 0.488488
vn -0.821221 0.294915 0.488488
vn -0.648582 0.760937 -0.017774
vn -0.648582 0.760937 -0.017774
vn -0.648582 0.760937 -0.017774
vn -0.743441 0.325451 -0.584275
vn -0.743441 0.325451 -0.584275
vn -0.743441 0.325451 -0.584275
vn -0.065505 -0.499563 0.863797
vn -0.065505 -0.499563 0.863797
vn -0.065505 -0.499563 0.863797
vn 0.065488 0.499563 -0.863799
vn 0.065488 0.499563 -0.863799
vn 0.065488 0.499563 -0.863799
vn 0.000294 1.000000 0.000008
vn 0.000294 1.000000 0.000008
vn 0.000294 1.000000 0.000008
vn -0.057063 0.499722 0.864304
vn -0.057063 0.499722 0.864304
vn -0.057063 0.499722 0.864304
vn 0.065825 -0.496760 -0.865388
vn 0.065825 -0.496760 -0.865388
vn 0.065825 -0.496760 -0.865388
vn -0.959821 0.279376 -0.026303
vn -0.959821 0.279376 -0.026303
vn -0.959821 0.279376 -0.026303
vn 0.104968 0.305294 -0.946455
vn 0.104968 0.305294 -0.946455
vn 0.104968 0.305294 -0.946455
vn -0.104580 0.305447 0.946449
vn -0.104580 0.305447 0.946449
vn -0.104580 0.305447 0.946449
vn 0.104692 -0.302310 -0.947443
vn 0.104692 -0.302310 -0.947443
vn 0.104692 -0.302310 -0.947443
vn -0.089345 0.762105 0.641259
vn -0.089345 0.762105 0.641259
vn -0.089345 0.762105 0.641259
vn 0.977387 0.209753 0.026785
vn 0.977387 0.209753 0.026785
vn 0.977387 0.209753 0.026785
vn 0.960364 0.277503 0.026318
vn 0.960364 0.277503 0.026318
vn 0.960364 0.277503 0.026318
vn 0.129157 0.450124 -0.883576
vn 0.129157 0.450124 -0.883576
vn 0.129157 0.450124 -0.883576
vn 0.095049 0.508704 -0.855678
vn 0.095049 0.508704 -0.855678
vn 0.095049 0.508704 -0.855678
vn 0.072448 0.996398 -0.044079
vn 0.072448 0.996398 -0.044079
vn 0.072448 0.996398 -0.044079
vn -0.014352 0.439911 0.897926
vn -0.014352 0.439911 0.897926
vn -0.014352 0.439911 0.897926
vn -0.064837 -0.553517 0.830310
vn -0.064837 -0.553517 0.830310
vn -0.064837 -0.553517 0.830310
vn 0.996387 -0.083493 0.015587
vn 0.996387 -0.083493 0.015587
vn 0.996387 -0.083493 0.015587
vn 0.997753 -0.048724 -0.045991
vn 0.997753 -0.048724 -0.045991
vn 0.997753 -0.048724 -0.045991
vn 0.978664 0.150429 -0.139954
vn 0.978664 0.150429 -0.139954
vn 0.978664 0.150429 -0.139954
vn -0.046660 0.508610 -0.859732
vn -0.046660 0.508610 -0.859732
vn -0.046660 0.508610 -0.859732
vn -0.041266 0.999148 -0.001131
vn -0.041266 0.999148 -0.001131
vn -0.041266 0.999148 -0.001131
vn 0.007320 0.499759 0.866134
vn 0.007320 0.499759 0.866134
vn 0.007320 0.499759 0.866134
vn 0.047555 -0.498729 0.865452
vn 0.047555 -0.498729 0.865452
vn 0.047555 -0.498729 0.865452
vn 0.039136 -0.997055 -0.065949
vn 0.039136 -0.997055 -0.065949
vn 0.039136 -0.997055 -0.065949
vn 0.014748 -0.359784 -0.932919
vn 0.014748 -0.359784 -0.932919
vn 0.014748 -0.359784 -0.932919
vn -0.036651 -0.998508 0.040476
vn -0.036651 -0.998508 0.040476
vn -0.036651 -0.998508 0.040476
vn 0.740073 0.669140 0.067401
vn 0.740073 0.669140 0.067401
vn 0.740073 0.669140 0.067401
vn 0.059178 -0.525696 -0.848612
vn 0.059178 -0.525696 -0.848612
vn 0.059178 -0.525696 -0.848612
vn -0.606988 -0.409970 -0.680801
vn -0.606988 -0.409970 -0.680801
vn -0.606988 -0.409970 -0.680801
vn -0.793021 -0.608157 -0.035538
vn -0.793021 -0.608157 -0.035538
vn -0.793021 -0.608157 -0.035538
vn -0.657269 -0.384499 0.648197
vn -0.657269 -0.384499 0.648197
vn -0.657269 -0.384499 0.648197
vn -0.846588 0.310961 0.431963
vn -0.846588 0.310961 0.431963
vn -0.846588 0.310961 0.431963
vn -0.785055 0.248062 -0.567585
vn -0.785055 0.248062 -0.567585
vn -0.785055 0.248062 -0.567585
vn -0.999246 -0.014616 -0.035960
vn -0.999246 -0.014616 -0.035960
vn -0.999246 -0.014616 -0.035960
vn -0.067258 -0.504332 0.860887
vn -0.067258 -0.504332 0.860887
vn -0.067258 -0.504332 0.860887
vn 0.058108 0.479253 -0.875751
vn 0.058108 0.479253 -0.875751
vn 0.058108 0.479253 -0.875751
vn -0.002701 -0.999533 0.030451
vn -0.002701 -0.999533 0.030451
vn -0.002701 -0.999533 0.030451
vn 0.000294 1.000000 0.000008
vn 0.000294 1.000000 0.000008
vn 0.000294 1.000000 0.000008
vn -0.066005 0.515515 0.854335
vn -0.066005 0.515515 0.854335
vn -0.066005 0.515515 0.854335
vn -0.976953 0.211770 -0.026773
vn -0.976953 0.211770 -0.026773
vn -0.976953 0.211770 -0.026773
vn -0.959821 0.279377 -0.026303
vn -0.959821 0.279377 -0.026303
vn -0.959821 0.279377 -0.026303
vn 0.104968 0.305294 -0.946455
vn 0.104968 0.305294 -0.946455
vn 0.104968 0.305294 -0.946455
vn -0.104580 0.305446 0.946449
vn -0.104580 0.305446 0.946449
vn -0.104580 0.305446 0.946449
vn 0.087183 -0.293679 -0.951920
vn 0.087183 -0.293679 -0.951920
vn 0.087183 -0.293679 -0.951920
vn -0.071213 0.758614 0.647637
vn -0.071213 0.758614 0.647637
vn -0.071213 0.758614 0.647637
s off
g Branch NaturePack
usemtl BranchSG
f 7/48/1 9/49/2 29/50/3
f 11/1/4 31/2/5 9/3/6
f 19/62/7 1/63/8 12/64/9
f 10/27/10 19/28/11 12/29/12
f 8/51/13 18/58/14 10/54/15
f 6/55/16 16/59/17 8/51/18
usemtl BranchSG1
f 17/6/19 16/7/20 15/8/21
usemtl BranchSG
f 1/63/22 11/66/23 12/64/24
f 10/27/25 11/31/26 9/32/27
f 8/51/28 9/49/29 7/48/30
f 6/33/31 7/38/32 5/36/33
f 6/33/34 3/34/35 4/35/36
f 4/67/37 2/68/38 1/63/39
f 14/37/40 6/33/41 4/35/42
usemtl BranchSG1
f 16/7/43 17/6/44 18/9/45
usemtl BranchSG
f 13/65/46 4/67/47 1/63/48
usemtl BranchSG1
f 3/20/49 24/14/50 21/19/51
f 25/13/52 24/14/53 23/15/54
f 26/18/55 27/16/56 25/13/57
f 20/21/58 27/16/59 26/18/60
usemtl BranchSG
f 5/77/61 23/78/62 22/79/63
f 26/72/64 2/68/65 20/73/66
f 25/44/67 28/45/68 26/46/69
f 23/53/70 29/50/71 25/57/72
f 2/68/73 3/70/74 20/73/75
f 29/22/76 32/23/77 28/24/78
f 11/66/79 32/71/80 30/74/81
f 29/50/82 31/52/83 33/56/84
f 32/71/85 34/75/86 30/74/87
f 33/56/88 34/60/89 35/61/90
f 30/4/91 34/5/92 31/2/93
f 11/1/94 30/4/95 31/2/96
f 19/62/97 13/65/98 1/63/99
f 28/69/100 11/66/101 2/68/102
f 10/27/103 18/30/104 19/28/105
f 8/51/106 16/59/107 18/58/108
f 6/33/109 15/40/110 16/43/111
usemtl BranchSG1
f 15/8/112 14/10/113 17/6/114
f 14/10/115 13/12/116 17/6/117
f 13/12/118 19/11/119 17/6/120
usemtl BranchSG
f 1/63/121 2/68/122 11/66/123
f 10/27/124 12/29/125 11/31/126
f 8/51/127 10/54/128 9/49/129
f 6/55/130 8/51/131 7/48/132
f 6/33/133 5/36/134 3/34/135
f 4/67/136 3/70/137 2/68/138
f 14/37/139 15/40/140 6/33/141
usemtl BranchSG1
f 18/9/142 17/6/143 19/11/144
usemtl BranchSG
f 13/41/145 14/37/146 4/35/147
usemtl BranchSG1
f 20/21/148 3/20/149 21/19/150
f 3/20/151 22/17/152 24/14/153
f 22/17/154 23/15/155 24/14/156
f 25/13/157 27/16/158 24/14/159
f 20/21/160 21/19/161 27/16/162
f 27/16/163 21/19/164 24/14/165
usemtl BranchSG
f 5/36/166 7/38/167 23/42/168
f 26/72/169 28/69/170 2/68/171
f 3/34/172 5/36/173 22/39/174
f 25/44/175 29/47/176 28/45/177
f 23/53/178 7/48/179 29/50/180
f 32/23/181 33/25/182 35/26/183
f 29/22/184 33/25/185 32/23/186
f 11/66/187 28/69/188 32/71/189
f 29/50/190 9/49/191 31/52/192
f 32/71/193 35/76/194 34/75/195
f 33/56/196 31/52/197 34/60/198
