# This file uses meters as units for non-parametric coordinates.

mtllib mushroom2.mtl
g default
v -21.462938 0.025286 40.892226
v -20.995228 1.079935 40.886380
v -21.163085 -0.001059 40.101832
v -20.827383 1.282120 40.375224
v -20.430432 -0.000078 39.810529
v -20.379361 1.535360 40.167004
v -19.848865 0.016909 40.252249
v -19.936019 1.609859 40.407028
v -19.684811 0.049166 41.036828
v -19.768849 1.630998 40.942189
v -19.834854 0.072607 41.705644
v -19.918087 1.561153 41.426416
v -20.368825 0.128125 41.999903
v -20.318431 1.287054 41.607700
v -21.074027 0.104053 41.680379
v -20.778702 1.081383 41.394347
v -20.920855 3.522509 40.339960
v -21.142232 3.522509 40.887639
v -20.383097 3.525157 40.112644
v -19.894804 3.551142 40.367566
v -19.717861 3.574675 40.941752
v -19.885450 3.551142 41.459050
v -20.369870 3.525157 41.656241
v -20.911501 3.522509 41.431448
v -22.767155 2.575810 40.434621
v -21.558441 5.605152 40.528809
v -21.611564 2.504031 38.853975
v -21.043626 5.573174 39.824628
v -19.677527 2.571332 38.547499
v -20.261517 5.581578 39.689671
v -18.139067 2.735558 39.684974
v -19.705602 5.615853 40.203695
v -18.093116 2.887491 41.553693
v -19.666609 5.665396 41.064894
v -19.248706 2.959270 43.134334
v -20.181424 5.697373 41.769070
v -20.928905 2.908847 43.500977
v -20.948479 5.693055 41.903731
v -22.467368 2.744622 42.363501
v -21.504399 5.658780 41.389707
v -20.525444 6.829138 40.701446
v -22.090050 3.877188 40.510516
v -21.277061 3.826690 39.398496
v -19.916414 3.874038 39.182880
v -18.805529 3.991472 39.989887
v -18.646684 4.106181 41.335307
v -19.459505 4.156726 42.447328
v -20.768255 4.113386 42.674542
v -21.879142 3.995952 41.867535
vt 0.168859 0.711189
vt 0.168395 0.794914
vt 0.127816 0.810964
vt 0.106112 0.709098
vt 0.231427 0.717442
vt 0.208720 0.795029
vt 0.168495 0.988820
vt 0.125016 0.988820
vt 0.211666 0.988820
vt 0.141725 0.397407
vt 0.129438 0.523865
vt 0.086954 0.525543
vt 0.079441 0.399968
vt 0.176792 0.396058
vt 0.148493 0.517951
vt 0.132571 0.677976
vt 0.086989 0.679844
vt 0.048513 0.519998
vt 0.026346 0.401828
vt 0.045922 0.677976
vt 0.495117 0.130671
vt 0.627123 0.168604
vt 0.622865 0.236947
vt 0.485689 0.238399
vt 0.504440 0.066606
vt 0.629844 0.127797
vt 0.720033 0.223242
vt 0.620327 0.292849
vt 0.481681 0.326678
vt 0.395779 0.091298
vt 0.382378 0.244424
vt 0.408816 0.000998
vt 0.376680 0.369905
vt 0.593123 0.396058
vt 0.568918 0.495760
vt 0.462110 0.504867
vt 0.444773 0.408120
vt 0.551944 0.624714
vt 0.483577 0.628647
vt 0.373831 0.508879
vt 0.319292 0.413818
vt 0.632983 0.486438
vt 0.592751 0.621993
vt 0.512430 0.721032
vt 0.427675 0.631185
vt 0.339299 0.808726
vt 0.363103 0.745980
vt 0.421266 0.722855
vt 0.467434 0.757921
vt 0.480458 0.820206
vt 0.468546 0.873300
vt 0.426156 0.896661
vt 0.370173 0.871295
vt 0.502837 0.827349
vt 0.485263 0.783871
vt 0.503580 0.740700
vt 0.546577 0.722855
vt 0.585034 0.738509
vt 0.598338 0.779575
vt 0.584291 0.825157
vt 0.545527 0.845395
vt 0.000912 0.150809
vt 0.092649 0.025328
vt 0.246185 0.000998
vt 0.368318 0.091298
vt 0.371965 0.239648
vt 0.280228 0.365129
vt 0.146843 0.394235
vt 0.024710 0.303936
vt 0.000912 0.963662
vt 0.027562 0.861796
vt 0.063128 0.841692
vt 0.059074 0.963584
vt 0.020141 0.683940
vt 0.062832 0.683730
vt 0.098324 0.835778
vt 0.101596 0.681667
vt 0.334429 0.722855
vt 0.327822 0.841025
vt 0.296040 0.819265
vt 0.292039 0.727262
vt 0.330413 0.999002
vt 0.291956 0.996939
vt 0.259501 0.802938
vt 0.236056 0.725351
vt 0.248958 0.996729
vt 0.663319 0.610081
vt 0.681850 0.471434
vt 0.743939 0.470767
vt 0.771335 0.606322
vt 0.722987 0.371728
vt 0.636764 0.715082
vt 0.790299 0.709739
vt 0.859524 0.597000
vt 0.912432 0.696702
vt 0.298777 0.495122
vt 0.241466 0.617429
vt 0.180573 0.617086
vt 0.194880 0.491682
vt 0.214156 0.707275
vt 0.315511 0.400061
vt 0.182127 0.396058
vn -0.898557 0.340484 -0.276887
vn -0.898557 0.340484 -0.276887
vn -0.898557 0.340484 -0.276887
vn -0.898557 0.340484 -0.276887
vn -0.422626 0.252504 -0.870419
vn -0.422626 0.252504 -0.870419
vn -0.422626 0.252504 -0.870419
vn -0.422626 0.252504 -0.870419
vn 0.539428 0.141864 -0.829995
vn 0.539428 0.141864 -0.829995
vn 0.539428 0.141864 -0.829995
vn 0.539428 0.141864 -0.829995
vn 0.967807 0.056832 -0.245195
vn 0.967807 0.056832 -0.245195
vn 0.967807 0.056832 -0.245195
vn 0.967807 0.056832 -0.245195
vn 0.963736 0.083372 0.253498
vn 0.963736 0.083372 0.253498
vn 0.963736 0.083372 0.253498
vn 0.963736 0.083372 0.253498
vn 0.398129 0.230142 0.887991
vn 0.398129 0.230142 0.887991
vn 0.398129 0.230142 0.887991
vn 0.398129 0.230142 0.887991
vn -0.394816 -0.032350 0.918191
vn -0.394816 -0.032350 0.918191
vn -0.394816 -0.032350 0.918191
vn -0.394816 -0.032350 0.918191
vn -0.445621 0.335610 0.829932
vn -0.445621 0.335610 0.829932
vn -0.445621 0.335610 0.829932
vn -0.445621 0.335610 0.829932
vn -0.849400 0.372642 0.373708
vn -0.849400 0.372642 0.373708
vn -0.849400 0.372642 0.373708
vn -0.849400 0.372642 0.373708
vn 0.000879 -0.998392 0.056671
vn 0.000879 -0.998392 0.056671
vn 0.000879 -0.998392 0.056671
vn 0.000879 -0.998392 0.056671
vn 0.000879 -0.998392 0.056671
vn 0.000879 -0.998392 0.056671
vn 0.000879 -0.998392 0.056671
vn 0.000879 -0.998392 0.056671
vn -0.032216 0.999481 0.000276
vn -0.032216 0.999481 0.000276
vn -0.032216 0.999481 0.000276
vn -0.032216 0.999481 0.000276
vn -0.032216 0.999481 0.000276
vn -0.032216 0.999481 0.000276
vn -0.032216 0.999481 0.000276
vn -0.032216 0.999481 0.000276
vn -0.397749 -0.028570 -0.917049
vn -0.397749 -0.028570 -0.917049
vn -0.397749 -0.028570 -0.917049
vn -0.397749 -0.028570 -0.917049
vn 0.953792 -0.022729 0.299606
vn 0.953792 -0.022729 0.299606
vn 0.953792 -0.022729 0.299606
vn 0.953792 -0.022729 0.299606
vn -0.918794 -0.055710 0.390787
vn -0.918794 -0.055710 0.390787
vn -0.918794 -0.055710 0.390787
vn -0.918794 -0.055710 0.390787
vn -0.934232 -0.050537 -0.353069
vn -0.934232 -0.050537 -0.353069
vn -0.934232 -0.050537 -0.353069
vn -0.934232 -0.050537 -0.353069
vn 0.471156 -0.025535 -0.881680
vn 0.471156 -0.025535 -0.881680
vn 0.471156 -0.025535 -0.881680
vn 0.471156 -0.025535 -0.881680
vn 0.397784 -0.015843 0.917342
vn 0.397784 -0.015843 0.917342
vn 0.397784 -0.015843 0.917342
vn 0.397784 -0.015843 0.917342
vn 0.955082 -0.025700 -0.295226
vn 0.955082 -0.025700 -0.295226
vn 0.955082 -0.025700 -0.295226
vn 0.955082 -0.025700 -0.295226
vn -0.777272 0.245261 -0.579393
vn -0.777272 0.245261 -0.579393
vn -0.777272 0.245261 -0.579393
vn -0.777272 0.245261 -0.579393
vn -0.162627 0.252380 -0.953864
vn -0.162627 0.252380 -0.953864
vn -0.162627 0.252380 -0.953864
vn -0.162627 0.252380 -0.953864
vn 0.556448 0.368959 -0.744469
vn 0.556448 0.368959 -0.744469
vn 0.556448 0.368959 -0.744469
vn 0.556448 0.368959 -0.744469
vn 0.851597 0.511555 -0.114429
vn 0.851597 0.511555 -0.114429
vn 0.851597 0.511555 -0.114429
vn 0.851597 0.511555 -0.114429
vn 0.692624 0.536678 0.481923
vn 0.692624 0.536678 0.481923
vn 0.692624 0.536678 0.481923
vn 0.692624 0.536678 0.481923
vn 0.143264 0.450622 0.881144
vn 0.143264 0.450622 0.881144
vn 0.143264 0.450622 0.881144
vn 0.143264 0.450622 0.881144
vn 0.119609 0.700265 0.703792
vn 0.119609 0.700265 0.703792
vn 0.119609 0.700265 0.703792
vn -0.606630 0.317119 0.728996
vn -0.606630 0.317119 0.728996
vn -0.606630 0.317119 0.728996
vn -0.606630 0.317119 0.728996
vn -0.958603 0.268919 0.093612
vn -0.958603 0.268919 0.093612
vn -0.958603 0.268919 0.093612
vn -0.958603 0.268919 0.093612
vn 0.047292 -0.995689 0.079791
vn 0.047292 -0.995689 0.079791
vn 0.047292 -0.995689 0.079791
vn 0.047292 -0.995689 0.079791
vn 0.047292 -0.995689 0.079791
vn 0.047292 -0.995689 0.079791
vn 0.047292 -0.995689 0.079791
vn 0.047292 -0.995689 0.079791
vn 0.812965 0.578083 -0.070064
vn 0.812965 0.578083 -0.070064
vn 0.812965 0.578083 -0.070064
vn -0.501138 0.710066 0.494638
vn -0.501138 0.710066 0.494638
vn -0.501138 0.710066 0.494638
vn -0.141667 0.605287 -0.783299
vn -0.141667 0.605287 -0.783299
vn -0.141667 0.605287 -0.783299
vn 0.648075 0.617492 0.445760
vn 0.648075 0.617492 0.445760
vn 0.648075 0.617492 0.445760
vn -0.764735 0.644297 0.007871
vn -0.764735 0.644297 0.007871
vn -0.764735 0.644297 0.007871
vn -0.631419 0.601858 -0.488955
vn -0.631419 0.601858 -0.488955
vn -0.631419 0.601858 -0.488955
vn 0.522273 0.601082 -0.604923
vn 0.522273 0.601082 -0.604923
vn 0.522273 0.601082 -0.604923
vn -0.885182 0.454857 0.097767
vn -0.885182 0.454857 0.097767
vn -0.885182 0.454857 0.097767
vn -0.885182 0.454857 0.097767
vn -0.540437 0.520681 0.660923
vn -0.540437 0.520681 0.660923
vn -0.540437 0.520681 0.660923
vn -0.540437 0.520681 0.660923
vn 0.149330 0.529336 0.835167
vn 0.149330 0.529336 0.835167
vn 0.149330 0.529336 0.835167
vn 0.149330 0.529336 0.835167
vn 0.738530 0.428652 0.520414
vn 0.738530 0.428652 0.520414
vn 0.738530 0.428652 0.520414
vn 0.738530 0.428652 0.520414
vn 0.891682 0.442889 -0.093557
vn 0.891682 0.442889 -0.093557
vn 0.891682 0.442889 -0.093557
vn 0.891682 0.442889 -0.093557
vn 0.497244 0.448816 -0.742504
vn 0.497244 0.448816 -0.742504
vn 0.497244 0.448816 -0.742504
vn 0.497244 0.448816 -0.742504
vn -0.156668 0.409606 -0.898709
vn -0.156668 0.409606 -0.898709
vn -0.156668 0.409606 -0.898709
vn -0.156668 0.409606 -0.898709
vn -0.727160 0.410432 -0.550258
vn -0.727160 0.410432 -0.550258
vn -0.727160 0.410432 -0.550258
vn -0.727160 0.410432 -0.550258
s off
g Mushroom2 NaturePack
usemtl Mushroom2SG
f 1/1/1 2/2/2 4/3/3 3/4/4
f 3/70/5 4/71/6 6/72/7 5/73/8
f 5/14/9 6/15/10 8/11/11 7/10/12
f 7/10/13 8/11/14 10/12/15 9/13/16
f 9/13/17 10/12/18 12/18/19 11/19/20
f 11/78/21 12/79/22 14/80/23 13/81/24
f 16/84/25 14/80/26 23/83/27 24/86/28
f 13/81/29 14/80/30 16/84/31 15/85/32
f 15/5/33 16/6/34 2/2/35 1/1/36
f 1/46/37 3/47/38 5/48/39 7/49/40 9/50/41 11/51/42 13/52/43 15/53/44
f 17/54/45 18/55/46 24/56/47 23/57/48 22/58/49 21/59/50 20/60/51 19/61/52
f 6/72/53 4/71/54 17/74/55 19/75/56
f 12/18/57 10/12/58 21/17/59 22/20/60
f 2/2/61 16/6/62 24/9/63 18/7/64
f 4/3/65 2/2/66 18/7/67 17/8/68
f 8/76/69 6/72/70 19/75/71 20/77/72
f 14/80/73 12/79/74 22/82/75 23/83/76
f 10/12/77 8/11/78 20/16/79 21/17/80
usemtl Mushroom2SG1
f 42/24/81 26/23/82 28/28/83 43/29/84
f 43/87/85 28/88/86 30/89/87 44/90/88
f 44/42/89 30/43/90 32/38/91 45/35/92
f 45/35/93 32/38/94 34/39/95 46/36/96
f 46/36/97 34/39/98 36/45/99 47/40/100
f 47/96/101 36/97/102 38/98/103 48/99/104
f 38/98/105 36/97/106 41/100/107
f 48/25/108 38/26/109 40/22/110 49/21/111
f 49/21/112 40/22/113 26/23/114 42/24/115
f 25/62/116 27/63/117 29/64/118 31/65/119 33/66/120 35/67/121 37/68/122 39/69/123
f 34/39/124 32/38/125 41/44/126
f 40/22/127 38/26/128 41/27/129
f 30/89/130 28/88/131 41/91/132
f 36/45/133 34/39/134 41/44/135
f 26/23/136 40/22/137 41/27/138
f 28/28/139 26/23/140 41/27/141
f 32/38/142 30/43/143 41/44/144
f 39/30/145 49/21/146 42/24/147 25/31/148
f 37/32/149 48/25/150 49/21/151 39/30/152
f 35/101/153 47/96/154 48/99/155 37/102/156
f 33/37/157 46/36/158 47/40/159 35/41/160
f 31/34/161 45/35/162 46/36/163 33/37/164
f 29/93/165 44/90/166 45/94/167 31/95/168
f 27/92/169 43/87/170 44/90/171 29/93/172
f 25/31/173 42/24/174 43/29/175 27/33/176
